<svg width="106" height="108" viewBox="0 0 106 108" fill="none" xmlns="http://www.w3.org/2000/svg">
<path d="M101.68 53.7386C101.68 81.2466 79.7783 103.428 52.9061 103.428C26.0338 103.428 4.13257 81.2466 4.13257 53.7386C4.13257 26.2306 26.0338 4.04892 52.9061 4.04892C79.7783 4.04892 101.68 26.2306 101.68 53.7386Z" fill="url(#paint0_linear_281_441)" stroke="#FFB347" stroke-width="8"/>
<path d="M33.0095 46.1823C33.57 45.4184 34.1846 44.6888 34.8481 43.9981C33.5001 43.1109 32.5947 41.5494 32.5947 39.7614C32.5947 36.9969 34.7425 34.7476 37.3821 34.7476C39.7422 34.7476 41.6955 36.5479 42.0875 38.9032C42.9307 38.518 43.7993 38.1721 44.6968 37.8781C43.8867 34.4324 40.9196 31.865 37.3821 31.865C33.225 31.865 29.842 35.4078 29.842 39.7614C29.842 42.4085 31.0965 44.7494 33.0095 46.1823Z" fill="white"/>
<path d="M68.4353 34.7333C71.074 34.7333 73.2194 36.9723 73.2194 39.7241C73.2194 41.5394 72.2757 43.1165 70.8824 43.9899C71.5468 44.6834 72.1592 45.4153 72.7196 46.1823C74.6807 44.7621 75.97 42.3984 75.97 39.7251C75.97 35.3906 72.5898 31.865 68.4352 31.865C64.8866 31.865 61.9103 34.4407 61.1152 37.8934C62.0141 38.1919 62.8854 38.5403 63.7289 38.9293C64.0971 36.5552 66.0589 34.7333 68.4353 34.7333Z" fill="white"/>
<path fill-rule="evenodd" clip-rule="evenodd" d="M52.9412 80.3846C38.5392 80.3846 26.8223 69.9019 26.8223 57.0183C26.8223 54.094 27.4179 51.2491 28.5943 48.5479C26.3955 46.193 25.1511 43.0558 25.1511 39.791C25.1511 32.7891 30.7246 27.0926 37.5735 27.0926C42.2723 27.0926 46.4955 29.7595 48.6152 33.9738C51.4525 33.5489 54.3686 33.5471 57.2006 33.963C59.3216 29.7549 63.5439 27.0926 68.2369 27.0926C75.088 27.0926 80.661 32.7891 80.661 39.791C80.661 43.0291 79.4342 46.147 77.2646 48.4969C78.456 51.213 79.0592 54.0748 79.0592 57.0183C79.0592 69.902 67.3426 80.3846 52.9412 80.3846ZM37.5753 29.8697C32.2229 29.8697 27.8682 34.32 27.8682 39.791C27.8682 42.6155 29.0609 45.3167 31.1409 47.203L31.9218 47.9113L31.4907 48.7882C30.1772 51.3347 29.4409 54.1547 29.4409 57.1252C29.4409 64.4692 33.9043 70.9038 40.5993 74.498C44.185 76.4642 48.4136 77.6042 52.9411 77.6042C59.3859 77.6042 65.2295 75.3009 69.4662 71.5818C73.7309 67.8864 76.372 62.7744 76.372 57.1252C76.372 56.017 76.2659 54.9304 76.0714 53.87C75.7672 52.1379 75.2116 50.4489 74.4085 48.823L73.9391 47.8742L74.7128 47.1641C76.7648 45.2788 77.9438 42.5913 77.9438 39.7903C77.9438 34.3193 73.5896 29.8685 68.2368 29.8685C64.2841 29.8685 60.7596 32.2866 59.257 36.0282L58.8404 37.067L57.7596 36.868C54.5835 36.2818 51.2486 36.2837 48.0606 36.8806L46.9759 37.0836L46.5593 36.0413C45.0591 32.2919 41.5333 29.8697 37.5753 29.8697Z" fill="white"/>
<path fill-rule="evenodd" clip-rule="evenodd" d="M36.8784 64.4773C36.8784 71.0547 44.2433 76.4076 53.2971 76.4076C62.35 76.4076 69.7153 71.0547 69.7153 64.4773C69.7153 57.8979 62.3501 52.5455 53.2962 52.5455C44.2433 52.5455 36.8784 57.8979 36.8784 64.4773ZM53.2962 63.0774C51.2174 63.0774 49.6059 62.0313 49.6059 61.1328C49.6059 60.2343 51.2175 59.1902 53.2962 59.1902C55.374 59.1902 56.9861 60.2344 56.9861 61.1328C56.9861 62.0312 55.374 63.0774 53.2962 63.0774ZM67.0584 64.4771C67.0584 59.4416 60.8841 55.3445 53.2962 55.3445C45.708 55.3445 39.5355 59.4416 39.5345 64.4771C39.5345 69.214 45.0014 73.1177 51.9678 73.5634V65.7757C49.0676 65.3302 46.9491 63.4511 46.9491 61.1328C46.9491 58.4738 49.7369 56.3906 53.2962 56.3906C56.8556 56.3906 59.6432 58.4738 59.6432 61.1328C59.6432 63.4511 57.525 65.33 54.6251 65.7757V73.5634C61.5917 73.1177 67.0584 69.2138 67.0584 64.4771Z" fill="white"/>
<path d="M43.524 48.5685C40.9181 48.5685 40.9181 52.5455 43.524 52.5455C46.1299 52.5455 46.1307 48.5685 43.524 48.5685Z" fill="white"/>
<path d="M62.2888 52.5455C64.8939 52.5455 64.8939 48.5685 62.2888 48.5685C59.6817 48.5685 59.6817 52.5455 62.2888 52.5455Z" fill="white"/>
<defs>
<linearGradient id="paint0_linear_281_441" x1="-48.3188" y1="21.0246" x2="14.23" y2="130.762" gradientUnits="userSpaceOnUse">
<stop stop-color="#FFCC33"/>
<stop offset="1" stop-color="#FFB347"/>
</linearGradient>
</defs>
</svg>
