<svg width="24" height="24" viewBox="0 0 24 24" fill="none" xmlns="http://www.w3.org/2000/svg">
<path fill-rule="evenodd" clip-rule="evenodd" d="M11 1.94775C11.5523 1.94775 12 2.38378 12 2.92164C12 3.42109 11.614 3.83272 11.1166 3.88898L11 3.89553H7.78221C5.53243 3.89553 4.09208 5.32695 4.00426 7.59498L4 7.81706V15.5562C4 17.881 5.36512 19.3818 7.56658 19.4733L7.78221 19.4778H16.2168C18.4725 19.4778 19.9082 18.0497 19.9958 15.7786L20 15.5562V12.6605C20 12.1227 20.4477 11.6866 21 11.6866C21.5128 11.6866 21.9355 12.0626 21.9933 12.547L22 12.6605V15.5562C22 18.9237 19.7872 21.3148 16.4514 21.4218L16.2168 21.4255H7.78221C4.39554 21.4255 2.1059 19.1107 2.00358 15.7896L2 15.5562V7.81706C2 4.4527 4.21828 2.05858 7.54811 1.9515L7.78221 1.94775H11Z" fill="#391484"/>
<g opacity="0.5">
<path fill-rule="evenodd" clip-rule="evenodd" d="M20.049 4.59751L19.0721 3.64609C19.0251 3.60033 18.9766 3.55611 18.9266 3.51349C17.6798 2.45077 15.7845 2.57359 14.6933 3.7878L10.0871 8.9132C9.29071 9.79939 8.85171 10.937 8.85171 12.1147L8.85171 12.6016C8.85171 13.6774 9.74715 14.5494 10.8517 14.5494L11.3526 14.5494C12.5624 14.5494 13.7311 14.1218 14.6416 13.3459L19.9032 8.86222C19.9533 8.81952 20.0019 8.77521 20.049 8.72937C21.2206 7.58839 21.2206 5.73849 20.049 4.59751ZM18.6348 5.97479C19.0253 6.35512 19.0253 6.97175 18.6348 7.35208L18.5862 7.39636L13.3246 11.8801C12.7787 12.3452 12.078 12.6016 11.3526 12.6016L10.8517 12.6016L10.8517 12.1147C10.8517 11.4089 11.1148 10.7271 11.5921 10.196L16.1983 5.07061C16.562 4.66587 17.1938 4.62494 17.6094 4.97917L17.6579 5.02337L18.6348 5.97479Z" fill="#391484"/>
</g>
</svg>
