<svg width="19" height="21" viewBox="0 0 19 21" fill="none" xmlns="http://www.w3.org/2000/svg">
<path fill-rule="evenodd" clip-rule="evenodd" d="M13.4583 2.46863H5.54158C3.35546 2.46863 1.58325 4.2854 1.58325 6.5265V14.6422C1.58325 16.8833 3.35546 18.7001 5.54158 18.7001H13.4583C15.6444 18.7001 17.4166 16.8833 17.4166 14.6422V6.5265C17.4166 4.2854 15.6444 2.46863 13.4583 2.46863ZM5.54159 4.09178H13.4583C14.7699 4.09178 15.8333 5.18184 15.8333 6.5265V14.6422C15.8333 15.9869 14.7699 17.077 13.4583 17.077H5.54159C4.22991 17.077 3.16659 15.9869 3.16659 14.6422V6.5265C3.16659 5.18184 4.22991 4.09178 5.54159 4.09178Z" fill="#391484"/>
<g opacity="0.5">
<path fill-rule="evenodd" clip-rule="evenodd" d="M7.12448 5.71484C5.81327 5.71484 4.74992 6.80549 4.74992 8.14959C4.74992 9.49366 5.81328 10.5843 7.12448 10.5843C8.43571 10.5843 9.49992 9.49362 9.49992 8.14959C9.49992 6.80552 8.43572 5.71484 7.12448 5.71484ZM7.12448 7.33799C7.56136 7.33799 7.91659 7.70206 7.91659 8.14959C7.91659 8.59708 7.56136 8.96114 7.12448 8.96114C6.6879 8.96114 6.33325 8.59739 6.33325 8.14959C6.33325 7.70174 6.6879 7.33799 7.12448 7.33799ZM13.4235 9.74096C12.3594 9.11765 11.0039 9.49662 10.3959 10.5874L9.52065 12.1576L9.50109 12.1901C9.3355 12.4447 8.99993 12.5135 8.75156 12.3437C7.74708 11.6573 6.40958 11.793 5.55594 12.6681L4.19013 14.0683L4.12427 14.1447C3.88279 14.4631 3.90474 14.9235 4.19013 15.216C4.49929 15.533 5.00055 15.533 5.30971 15.216L6.67553 13.8159L6.75245 13.7451C7.07187 13.4819 7.52575 13.4568 7.87328 13.6943C8.84924 14.3613 10.1679 14.0909 10.8185 13.0904C10.8455 13.0488 10.8712 13.0063 10.8954 12.9629L11.7706 11.3927L11.8184 11.3189C12.0089 11.0642 12.3585 10.9866 12.6379 11.1502C12.7736 11.2298 12.876 11.3578 12.9255 11.5098L13.4989 13.2719L13.5332 13.36C13.7012 13.728 14.1153 13.9167 14.5004 13.785C14.9152 13.6431 15.1393 13.1835 15.0009 12.7583L14.4275 10.9962L14.3702 10.8395C14.1821 10.3777 13.8499 9.99079 13.4235 9.74096Z" fill="#391484"/>
</g>
</svg>
