<svg width="46" height="76" viewBox="0 0 46 76" fill="none" xmlns="http://www.w3.org/2000/svg">
<path d="M22.9983 0.27002C28.2707 0.27002 32.5447 4.5441 32.5447 9.81647C32.5447 15.0888 28.2707 19.363 22.9983 19.363C17.7259 19.363 13.4519 15.0888 13.4519 9.81639C13.4575 4.54646 17.7282 0.275693 22.9977 0.27002H22.9983ZM22.9983 12.8018C24.6471 12.8018 25.9836 11.4652 25.9836 9.81647C25.9836 8.16777 24.647 6.8312 22.9983 6.8312C21.3495 6.8312 20.013 8.16784 20.013 9.81654C20.0148 11.4646 21.3503 12.8 22.9981 12.802H22.9982L22.9983 12.8018ZM22.9819 75.7232C10.7963 75.7176 0.919922 65.838 0.919922 53.6515V53.6412V53.6417H7.48111V53.653C7.48111 62.2228 14.4284 69.1701 22.9984 69.1701C31.5684 69.1701 38.5154 62.2229 38.5154 53.653C38.5154 48.6693 36.1659 44.2343 32.5142 41.3953L32.4792 41.3692C24.865 35.7546 19.9252 26.8936 19.7182 16.8695L19.7177 16.8369V16.0824H26.2788V16.7385C26.4757 24.6721 30.3774 31.6551 36.3126 36.0464L36.3798 36.0938L36.4454 36.1431C41.7178 40.2182 45.0799 46.5439 45.0799 53.6548C45.0799 65.8464 35.1966 75.7298 23.0049 75.7298H22.9944H22.9949L22.9819 75.7232ZM11.2997 55.9676L7.48118 52.1621V53.645H0.920143V36.3563L15.9319 51.3158L11.2997 55.9676Z" fill="white"/>
</svg>
