<svg width="46" height="76" viewBox="0 0 46 76" fill="none" xmlns="http://www.w3.org/2000/svg">
<path d="M22.9999 56.1103C17.9524 56.1044 13.8622 52.1459 13.8561 47.2615V47.2609C13.8561 40.5209 21.4263 33.119 21.7453 32.8069L22.9999 31.5961L24.2545 32.8103C24.5771 33.1224 32.1437 40.5243 32.1437 47.2643C32.1356 52.1478 28.0462 56.1044 23.0005 56.1103H22.9998H22.9999ZM22.9999 36.5593C20.1446 39.3996 18.1463 43.06 17.4179 47.1411L17.4004 47.261C17.4004 50.254 19.9074 52.6803 22.9999 52.6803C26.0925 52.6803 28.5997 50.254 28.5997 47.261C27.8543 43.0586 25.856 39.397 22.9954 36.5514L23 36.5559L22.9999 36.5593ZM11.0918 0.270215H34.9081V10.543C40.9352 13.0462 45.0799 18.7404 45.0799 25.3714C45.0799 25.4001 45.0799 25.4289 45.0797 25.4576V25.4532V75.7299H0.920151V25.5149C0.919998 25.492 0.919922 25.4648 0.919922 25.4376C0.919922 18.8072 5.06476 13.1137 10.9836 10.6515L11.0917 10.6116L11.0918 0.270215ZM31.3641 3.70017H14.6359V13.0298L13.4309 13.4208C8.17756 15.1445 4.46407 19.8742 4.46407 25.4432C4.46407 25.466 4.46422 25.4887 4.4643 25.5115V25.5079V72.2998H41.5356V25.4463C41.5358 25.4256 41.5359 25.4013 41.5359 25.377C41.5359 19.8074 37.8227 15.077 32.6614 13.3784L32.5691 13.352L33.1078 11.7948H31.3641L31.3641 3.70017ZM39.9053 3.70017H6.09452V0.270142H39.9053V3.70017Z" fill="white"/>
</svg>
