<svg width="107" height="108" viewBox="0 0 107 108" fill="none" xmlns="http://www.w3.org/2000/svg">
<path d="M102.412 53.9685C102.412 81.4765 80.5103 103.658 53.638 103.658C26.7658 103.658 4.8645 81.4765 4.8645 53.9685C4.8645 26.4604 26.7658 4.27881 53.638 4.27881C80.5103 4.27881 102.412 26.4604 102.412 53.9685Z" fill="url(#paint0_linear_281_415)" stroke="#6829B3" stroke-width="8"/>
<path fill-rule="evenodd" clip-rule="evenodd" d="M66.5383 49.0452C66.5383 51.544 64.6073 53.5708 62.2248 53.5708H45.8333C43.4516 53.5708 41.5198 51.544 41.5198 49.0452V31.848C41.5198 29.3493 43.4516 27.3225 45.8333 27.3225H62.2248C64.6073 27.3225 66.5383 29.3493 66.5383 31.848V49.0452ZM44.1079 31.848V49.0452C44.1079 50.0437 44.8816 50.8554 45.8333 50.8554H62.2248C63.1768 50.8554 63.9502 50.0437 63.9502 49.0452V31.848C63.9502 30.8497 63.1768 30.0378 62.2248 30.0378H45.8333C44.8816 30.0378 44.1079 30.8497 44.1079 31.848Z" fill="white"/>
<path fill-rule="evenodd" clip-rule="evenodd" d="M27.4468 76.0889V58.8917C27.4468 56.3929 29.3773 54.3662 31.7603 54.3662H48.1518C50.534 54.3662 52.4653 56.3929 52.4653 58.8917V76.0889C52.4653 78.5877 50.534 80.6144 48.1518 80.6144H31.7603C29.3786 80.6144 27.4468 78.5877 27.4468 76.0889ZM49.8772 76.0889V58.8917C49.8772 57.8931 49.1035 57.0815 48.1518 57.0813H31.7603C30.8088 57.0813 30.0349 57.8929 30.0349 58.8917V76.0889C30.0349 77.0877 30.8088 77.8991 31.7603 77.8991H48.1518C49.1035 77.8991 49.8772 77.0877 49.8772 76.0889Z" fill="white"/>
<path fill-rule="evenodd" clip-rule="evenodd" d="M75.5158 54.3662C77.8983 54.3662 79.8293 56.3929 79.8293 58.8917V76.0889C79.8293 78.5877 77.8983 80.6144 75.5158 80.6144H59.1243C56.7428 80.6144 54.8108 78.5877 54.8108 76.0889V58.8917C54.8108 56.3929 56.7428 54.3662 59.1243 54.3662H75.5158ZM75.5158 77.8991C76.4678 77.8991 77.2412 77.0877 77.2412 76.0889V58.8917C77.2412 57.8929 76.4678 57.0813 75.5158 57.0813H59.1243C58.1723 57.0813 57.3989 57.8929 57.3989 58.8917V76.0889C57.3989 77.0877 58.1723 77.8991 59.1243 77.8991H75.5158Z" fill="white"/>
<path fill-rule="evenodd" clip-rule="evenodd" d="M47.5213 48.0029C47.3247 48.0029 47.1253 47.958 46.9383 47.8642C46.2896 47.5371 46.0255 46.7392 46.3485 46.0826L52.8557 32.8267C52.8584 32.821 52.8618 32.8158 52.8653 32.8107C52.8684 32.8061 52.8714 32.8015 52.874 32.7964C52.8949 32.7565 52.9198 32.7196 52.9444 32.6832L52.9473 32.6788C52.9524 32.6711 52.9575 32.6633 52.9625 32.6556C52.98 32.6285 52.9977 32.6013 53.0179 32.5758C53.0397 32.5489 53.0631 32.5254 53.087 32.5013C53.0911 32.4972 53.0952 32.493 53.0993 32.4889C53.1042 32.4839 53.109 32.4789 53.1138 32.474C53.1422 32.4448 53.1704 32.4157 53.2018 32.3898C53.2192 32.3754 53.2378 32.363 53.2566 32.3505C53.2668 32.3437 53.277 32.3369 53.2871 32.3298C53.2905 32.3274 53.294 32.325 53.2975 32.3226C53.337 32.2955 53.3764 32.2684 53.4193 32.2453C53.4235 32.243 53.4272 32.2403 53.4308 32.2376C53.4354 32.2343 53.4399 32.231 53.4454 32.2284C53.4576 32.2226 53.4703 32.2184 53.4831 32.2141C53.4948 32.2102 53.5066 32.2063 53.5179 32.2012C53.564 32.1808 53.6096 32.1623 53.6561 32.148C53.6934 32.1368 53.7313 32.129 53.77 32.1211L53.7739 32.1203C53.8166 32.1116 53.8597 32.1038 53.9024 32.0992C53.9443 32.0949 53.9872 32.0949 54.0291 32.0949C54.0717 32.0949 54.114 32.0949 54.1559 32.0992C54.1986 32.1038 54.2415 32.1116 54.2842 32.1203C54.2956 32.123 54.3071 32.1255 54.3187 32.1281C54.3468 32.1343 54.3752 32.1406 54.4033 32.1489C54.4485 32.1631 54.4943 32.1817 54.5386 32.2012C54.5496 32.206 54.5609 32.2097 54.572 32.2134C54.5859 32.218 54.5996 32.2226 54.6128 32.2292C54.6182 32.2318 54.6227 32.2349 54.6272 32.2381C54.6312 32.2409 54.6353 32.2438 54.6401 32.2463C54.6853 32.2712 54.7272 32.2994 54.7682 32.3288C54.7744 32.333 54.7807 32.3372 54.7869 32.3414C54.8108 32.3574 54.8347 32.3734 54.857 32.3916C54.8844 32.4142 54.9089 32.4393 54.9335 32.4644C54.9409 32.472 54.9484 32.4797 54.9559 32.4872C54.9643 32.496 54.9728 32.5047 54.9813 32.5134C55.0015 32.5339 55.0218 32.5546 55.0404 32.5768C55.0605 32.6005 55.0772 32.6268 55.0939 32.6529C55.099 32.661 55.1042 32.6691 55.1095 32.6772C55.1368 32.7162 55.1624 32.7542 55.1846 32.7966C55.1872 32.802 55.1904 32.8068 55.1936 32.8117C55.1968 32.8166 55.2 32.8215 55.2026 32.8269L61.7096 46.0828C62.0323 46.7394 61.7685 47.5371 61.1198 47.8642C60.9321 47.958 60.7333 48.0029 60.536 48.0029C60.0547 48.0029 59.5913 47.7317 59.3616 47.265L58.1727 44.8428H49.8851L48.6957 47.265C48.467 47.7331 48.0027 48.0029 47.5213 48.0029ZM56.8675 42.186L54.0288 36.4013L51.1892 42.186H56.8675Z" fill="white"/>
<path fill-rule="evenodd" clip-rule="evenodd" d="M36.5715 75.842H39.7474C42.4492 75.842 44.6469 73.6076 44.6469 70.8605C44.6469 68.9563 43.5893 67.3008 42.0413 66.4614C42.5352 65.7813 42.8367 64.9485 42.8367 64.0387C42.8367 61.7753 41.0257 59.934 38.7995 59.934H36.5715C35.6412 59.934 34.8601 60.5601 34.5908 61.416C34.5231 61.5728 34.4832 61.747 34.4832 61.9296V62.0573V66.0209V68.0024V73.7188V73.7917C34.4832 73.893 34.4975 73.9909 34.5198 74.0844C34.692 75.0806 35.5442 75.842 36.5715 75.842ZM42.1409 70.8605C42.1409 72.2026 41.0673 73.2941 39.7474 73.2941H36.9892V68.4272H39.7474C41.0673 68.4271 42.1409 69.5185 42.1409 70.8605ZM38.7996 65.5954C39.6443 65.5954 40.3308 64.8971 40.3308 64.0387C40.3308 63.1802 39.6443 62.4819 38.7995 62.481H36.9892V65.5954H38.7996Z" fill="white"/>
<path d="M72.1944 71.736C71.248 72.6635 70.0108 73.174 68.7102 73.174C65.9087 73.174 63.6298 70.8015 63.6298 67.8871C63.6298 64.9726 65.9086 62.6002 68.7102 62.6002C69.9547 62.6002 71.151 63.0733 72.0817 63.9315C72.6119 64.4204 73.4233 64.3708 73.8923 63.8193C74.3623 63.2688 74.313 62.4246 73.7837 61.9365C72.3838 60.6443 70.5832 59.934 68.7109 59.934C64.4953 59.934 61.0654 63.5015 61.0654 67.8879C61.0654 72.2745 64.4953 75.842 68.7109 75.842C70.6675 75.842 72.5299 75.0743 73.954 73.6778C74.469 73.1724 74.4932 72.3282 74.0074 71.7915C73.5216 71.2567 72.7103 71.2306 72.1944 71.736Z" fill="white"/>
<defs>
<linearGradient id="paint0_linear_281_415" x1="-11.2623" y1="8.95771" x2="14.2306" y2="113.173" gradientUnits="userSpaceOnUse">
<stop stop-color="#8D2EFF"/>
<stop offset="1" stop-color="#6829B3"/>
</linearGradient>
</defs>
</svg>
