<svg width="45" height="76" viewBox="0 0 45 76" fill="none" xmlns="http://www.w3.org/2000/svg">
<path d="M6.57236 0.27002H38.4275V15.5968C38.4311 17.5549 38.9391 19.3263 39.7588 20.6107V20.6106C40.5734 21.8849 41.6988 22.6732 42.9418 22.6732H44.5799V75.7298H28.6297C26.141 75.7298 23.927 73.8898 22.5132 71.0321L22.5 71.0043C21.0728 73.8898 18.8589 75.7297 16.3701 75.7297H0.419922V22.6632H2.05805C3.30109 22.6632 4.42637 21.875 5.24105 20.6006C6.05922 19.3186 6.56699 17.5512 6.57226 15.5984V15.5967L6.57236 0.27002ZM35.212 5.30069H9.78785V15.5968C9.78164 18.9458 8.91292 21.9755 7.51115 24.1725V24.1723C6.48244 25.7854 5.16281 26.9437 3.68582 27.4383L3.63542 27.4523V70.7159H16.3689C18.866 70.7121 20.8897 67.5461 20.8921 63.6398V63.6396H24.1078C24.1102 67.5462 26.1338 70.7122 28.6307 70.716H41.3645V27.4522C39.8373 26.9445 38.5176 25.7874 37.4887 24.1758L37.4886 24.1756C36.0864 21.9782 35.2176 18.9469 35.212 15.5984V15.5967V5.30069ZM22.5 37.7852L11.8372 0.27002H33.1647L22.5 37.7852ZM16.7848 5.30069L22.4999 25.4032L28.2151 5.30069H16.7848ZM24.1078 63.6226H20.8921V31.5943H24.1078V63.6226ZM16.369 43.7013H2.02772V38.6706H16.369L16.369 43.7013ZM16.369 59.7322H2.02772V54.7016H16.369L16.369 59.7322ZM42.9721 43.7013H28.6308V38.6706H42.9721V43.7013ZM42.9721 59.7322H28.6308V54.7016H42.9721V59.7322Z" fill="white"/>
</svg>
