<svg width="25" height="24" viewBox="0 0 25 24" fill="none" xmlns="http://www.w3.org/2000/svg">
<path fill-rule="evenodd" clip-rule="evenodd" d="M16.9222 2H8.48794C5.02784 2 2.70508 4.49166 2.70508 8.02664V15.9733C2.70508 19.5114 5.02199 22 8.48794 22H16.9222C20.3882 22 22.7051 19.5114 22.7051 15.9733V8.02664C22.7051 4.4886 20.3882 2 16.9222 2ZM8.48794 4H16.9222C19.2504 4 20.7051 5.56249 20.7051 8.02664V15.9733C20.7051 18.4375 19.2504 20 16.9222 20H8.48794C6.15977 20 4.70508 18.4375 4.70508 15.9733V8.02664C4.70508 5.56608 6.165 4 8.48794 4Z" fill="#391484"/>
<g opacity="0.5">
<path fill-rule="evenodd" clip-rule="evenodd" d="M11.7051 8C11.7051 7.44772 12.1528 7 12.7051 7C13.2574 7 13.7051 7.44772 13.7051 8V16C13.7051 16.5523 13.2574 17 12.7051 17C12.1528 17 11.7051 16.5523 11.7051 16V8ZM7.70508 14C7.70508 13.4477 8.15279 13 8.70508 13C9.25736 13 9.70508 13.4477 9.70508 14V16C9.70508 16.5523 9.25736 17 8.70508 17C8.15279 17 7.70508 16.5523 7.70508 16V14ZM16.7051 11C16.1528 11 15.7051 11.4477 15.7051 12V16C15.7051 16.5523 16.1528 17 16.7051 17C17.2574 17 17.7051 16.5523 17.7051 16V12C17.7051 11.4477 17.2574 11 16.7051 11Z" fill="#391484"/>
</g>
</svg>
