<svg width="24" height="24" viewBox="0 0 24 24" fill="none" xmlns="http://www.w3.org/2000/svg">
<path fill-rule="evenodd" clip-rule="evenodd" d="M12 2C6.94772 2 3 5.94775 3 11C3 13.6999 4.79762 16.9162 8.3279 20.7364C8.4171 20.8329 8.51007 20.9259 8.60659 21.0151C10.6347 22.8892 13.798 22.7644 15.6722 20.7364L15.9871 20.392C19.309 16.7215 21 13.6189 21.0001 11.0001C21.0001 5.94777 17.0523 2 12 2ZM12 4C15.9477 4 19.0001 7.05234 19.0001 11C19 13.0049 17.5237 15.7137 14.5077 19.0461L14.1998 19.3828C13.0788 20.5959 11.1808 20.6707 9.96396 19.5462C9.90605 19.4927 9.85027 19.4369 9.79675 19.379C6.57726 15.8952 5 13.0731 5 11C5 7.05232 8.0523 4 12 4Z" fill="#391484"/>
<g opacity="0.5">
<path fill-rule="evenodd" clip-rule="evenodd" d="M12 7C9.79086 7 8 8.79086 8 11C8 13.2091 9.79086 15 12 15C14.2091 15 16 13.2091 16 11C16 8.79086 14.2091 7 12 7ZM12 9C13.1046 9 14 9.89543 14 11C14 12.1046 13.1046 13 12 13C10.8954 13 10 12.1046 10 11C10 9.89543 10.8954 9 12 9Z" fill="#391484"/>
</g>
</svg>
