<svg width="24" height="24" viewBox="0 0 24 24" fill="none" xmlns="http://www.w3.org/2000/svg">
<path fill-rule="evenodd" clip-rule="evenodd" d="M1 12C1 10.3439 2.34318 9 3.99944 9C5.65575 9 7 10.3439 7 12C7 13.6561 5.65573 15 3.99944 15C2.34319 15 1 13.6562 1 12ZM5 12C5 11.4486 4.55129 11 3.99944 11C3.44797 11 3 11.4482 3 12C3 12.5518 3.44798 13 3.99944 13C4.55129 13 5 12.5514 5 12ZM9 12C9 10.3439 10.3432 9 11.9994 9C13.6557 9 15 10.3439 15 12C15 13.6561 13.6557 15 11.9994 15C10.3432 15 9 13.6562 9 12ZM13 12C13 11.4486 12.5513 11 11.9994 11C11.448 11 11 11.4482 11 12C11 12.5518 11.448 13 11.9994 13C12.5513 13 13 12.5514 13 12ZM19.9994 9C18.3432 9 17 10.3439 17 12C17 13.6562 18.3432 15 19.9994 15C21.6557 15 23 13.6561 23 12C23 10.3439 21.6557 9 19.9994 9ZM19.9994 11C20.5513 11 21 11.4486 21 12C21 12.5514 20.5513 13 19.9994 13C19.448 13 19 12.5518 19 12C19 11.4482 19.448 11 19.9994 11Z" fill="#391484"/>
</svg>
