<svg width="24" height="24" viewBox="0 0 24 24" fill="none" xmlns="http://www.w3.org/2000/svg">
<path fill-rule="evenodd" clip-rule="evenodd" d="M14 2H8C5.23858 2 3 4.23858 3 7V17C3 19.7614 5.23858 22 8 22H16C18.7614 22 21 19.7614 21 17V9C21 8.99923 21 8.99846 21 8.99769C21 8.99659 21 8.9955 21 8.9944C20.9998 8.68884 20.8625 8.4154 20.6464 8.23214L14.7072 2.29301L14.7071 2.29289C14.5196 2.10536 14.2652 2 14 2ZM13 3.9991L8 4C6.34315 4 5 5.34315 5 7V17C5 18.6569 6.34315 20 8 20H16C17.6569 20 19 18.6569 19 17L18.9991 9.9959L16.006 9.998C14.4001 10 13.094 8.75022 13.0048 7.17618L13 7V3.9991ZM17.5825 7.99749L15 5.415V7.00145C14.9993 7.51334 15.3847 7.93557 15.8818 7.99328L15.982 7.999L17.5825 7.99749Z" fill="#391484"/>
<g opacity="0.5">
<path fill-rule="evenodd" clip-rule="evenodd" d="M14.9061 12.4986C15.217 12.106 15.1911 11.5342 14.8284 11.1716C14.4379 10.781 13.8047 10.781 13.4142 11.1716L12 12.5858L10.5858 11.1716L10.4986 11.0939C10.106 10.783 9.5342 10.8089 9.17157 11.1716C8.78105 11.5621 8.78105 12.1953 9.17157 12.5858L10.5858 14L9.17157 15.4142L9.09387 15.5014C8.78304 15.8939 8.80894 16.4658 9.17157 16.8284C9.5621 17.2189 10.1953 17.2189 10.5858 16.8284L12 15.4142L13.4142 16.8284L13.5014 16.9061C13.894 17.217 14.4658 17.1911 14.8284 16.8284C15.219 16.4379 15.219 15.8047 14.8284 15.4142L13.4142 14L14.8284 12.5858L14.9061 12.4986Z" fill="#391484"/>
</g>
</svg>
