<svg width="45" height="76" viewBox="0 0 45 76" fill="none" xmlns="http://www.w3.org/2000/svg">
<path d="M22.5 57.4723C28.7935 57.4723 33.8955 48.7543 33.8955 38C33.8955 27.2457 28.7935 18.5276 22.5 18.5276C16.2064 18.5276 11.1045 27.2457 11.1045 38C11.1045 48.7543 16.2064 57.4723 22.5 57.4723Z" fill="white"/>
<path fill-rule="evenodd" clip-rule="evenodd" d="M24.6373 3.92228C24.6373 2.95364 24.4121 2.02468 24.0113 1.33974C23.6104 0.654811 23.0668 0.27002 22.4999 0.27002C21.9331 0.27002 21.3894 0.654811 20.9886 1.33974C20.5878 2.02468 20.3626 2.95364 20.3626 3.92228V13.7024C21.7796 13.3413 23.2202 13.3413 24.6373 13.7024V3.92228ZM24.6373 62.2974C23.2202 62.6588 21.7796 62.6588 20.3626 62.2974V72.0775C20.3626 73.0461 20.5878 73.9751 20.9886 74.66C21.3894 75.345 21.9331 75.7298 22.4999 75.7298C23.0668 75.7298 23.6104 75.345 24.0113 74.66C24.4121 73.9751 24.6373 73.0461 24.6373 72.0775V62.2974ZM42.4426 41.6522C43.0094 41.6522 43.5531 41.2674 43.9539 40.5824C44.3547 39.8975 44.5799 38.9685 44.5799 37.9999C44.5799 37.0312 44.3547 36.1023 43.9539 35.4174C43.5531 34.7324 43.0094 34.3476 42.4426 34.3476H36.7191C36.9306 36.7691 36.9306 39.2307 36.7191 41.6522H42.4426ZM8.28072 41.6522C8.06945 39.2307 8.06945 36.7691 8.28072 34.3476H2.55727C1.99041 34.3476 1.44677 34.7324 1.04594 35.4174C0.645106 36.1023 0.419922 37.0312 0.419922 37.9999C0.419922 38.9685 0.645106 39.8975 1.04594 40.5824C1.44677 41.2674 1.99041 41.6522 2.55727 41.6522H8.28072ZM38.112 16.4874C38.5128 15.8025 38.738 14.8735 38.738 13.9049C38.738 12.9362 38.5128 12.0073 38.112 11.3223C37.7111 10.6374 37.1675 10.2526 36.6006 10.2526C36.0338 10.2526 35.4901 10.6374 35.0893 11.3223L31.0426 18.2372C32.1932 19.6945 33.2111 21.4351 34.0631 23.4023L38.112 16.4874ZM13.9572 57.7588C12.8069 56.304 11.789 54.566 10.9368 52.6013L6.8901 59.5161C6.52499 60.2117 6.32976 61.1199 6.34458 62.0539C6.35941 62.9879 6.58317 63.8767 6.96981 64.5374C7.35646 65.1981 7.87659 65.5805 8.42319 65.6058C8.96979 65.6311 9.50129 65.2975 9.90833 64.6736L13.9572 57.7588ZM9.91057 11.3223C9.50943 10.6374 8.9655 10.2528 8.39843 10.2531C7.83135 10.2535 7.28759 10.6388 6.88675 11.3242C6.48592 12.0097 6.26085 12.9391 6.26106 13.9081C6.26127 14.8771 6.48674 15.8063 6.88787 16.4913L10.9345 23.4061C11.7879 21.4383 12.8073 19.6977 13.9595 18.241L9.9128 11.3261L9.91057 11.3223ZM34.0653 52.5975C33.2125 54.5637 32.1939 56.303 31.0426 57.7588L35.0893 64.6736C35.4945 65.316 36.0296 65.6651 36.5822 65.6478C37.1348 65.6304 37.662 65.2479 38.0531 64.5806C38.4442 63.9132 38.6689 63.0129 38.6798 62.0686C38.6908 61.1243 38.4873 60.2095 38.112 59.5161L34.0653 52.5975Z" fill="white"/>
</svg>
