<svg width="76" height="119" viewBox="0 0 76 119" fill="none" xmlns="http://www.w3.org/2000/svg">
<path fill-rule="evenodd" clip-rule="evenodd" d="M56.3395 110.904C53.2609 107.254 48.3248 103.695 50.8668 97.7738C51.8118 95.5735 52.9052 93.6612 53.3929 91.2306C54.4102 86.1657 52.7533 80.5403 48.4794 78.2841C47.5916 77.8152 46.6255 77.5768 45.7125 77.186C43.1657 76.0983 41.5933 73.9334 41.8038 70.7915C42.0375 67.3106 43.7885 64.295 44.5907 60.9919C45.2532 58.2591 45.4681 55.3228 43.9972 52.8915C43.3094 51.7519 42.3155 50.908 41.5643 49.8321C39.433 46.7766 39.1792 42.4425 40.5764 38.9155C40.719 38.5553 39.6757 38.9905 39.5779 39.4423C38.9059 42.5412 37.2726 45.1178 38.395 48.4368C39.0612 50.4045 40.6755 51.3527 41.7292 52.989C43.3605 55.5208 42.9763 58.2641 42.135 61.0532C40.2948 67.1595 37.4513 73.3091 43.1805 77.797C45.8208 79.863 48.34 81.1719 50.353 84.1264C52.6528 87.5 52.5553 90.9791 50.8919 94.6116C49.6534 97.3152 48.7843 99.8026 49.3386 102.903C49.9661 106.415 52.7859 109.602 55.5189 111.15C55.6538 111.226 56.5004 111.094 56.3395 110.904Z" fill="url(#paint0_linear_700_1099)"/>
<path fill-rule="evenodd" clip-rule="evenodd" d="M63.9235 103.145C60.08 98.0356 64.0568 92.8089 63.9506 87.1476C63.9134 85.1557 63.3132 83.2753 62.4278 81.5826C61.0374 78.9272 58.8338 78.3589 56.7518 76.684C53.6862 74.215 55.7593 70.8585 57.1769 68.0609C58.3453 65.7553 59.012 63.3935 58.7915 60.7026C58.6063 58.4403 57.9224 56.3324 56.6549 54.5783C55.3481 52.7719 51.3292 50.8734 51.2319 48.5059C51.1267 45.9801 52.6055 43.9575 51.7697 41.3334C50.7962 38.2811 48.1649 36.9606 45.7373 35.8056C44.8903 35.4034 41.6389 32.826 41.2606 33.0813C40.873 33.3421 40.8648 33.4425 40.8402 34.004C40.7339 36.293 43.9044 37.3891 45.2024 38.0596C46.6928 38.8289 48.7509 39.9557 49.1142 42.0254C49.3348 43.2827 48.8413 44.5616 48.5931 45.7555C47.996 48.6185 48.6582 50.3813 50.7732 51.9909C55.4835 55.5735 56.5446 62.0236 53.68 67.5226C52.3997 69.9779 50.7954 72.79 52.3763 75.6026C53.7087 77.9697 56.3609 78.5572 58.3856 79.8049C62.5888 82.3961 63.5719 87.2987 62.2089 92.1408C61.7564 93.7443 61.1169 95.3166 60.8748 96.9891C60.5376 99.3371 60.9142 102.111 62.8866 103.3C63.0332 103.387 64.1032 103.384 63.9235 103.145Z" fill="url(#paint1_linear_700_1099)"/>
<path fill-rule="evenodd" clip-rule="evenodd" d="M43.572 99.0851C42.7662 97.5463 41.4353 96.5524 40.6381 95.0023C39.4197 92.6318 40.0278 90.4989 40.3748 87.9998C40.6252 86.2037 40.3591 84.3432 39.3285 82.9042C37.867 80.8658 35.5008 80.5853 33.6385 79.2439C31.21 77.4943 30.7516 73.0069 31.4323 70.0557C31.9969 67.6092 33.7529 65.3698 33.1867 62.7012C32.7654 60.7125 31.3538 59.2531 29.9205 58.162C28.0982 56.7735 25.8708 55.5839 25.175 53.0009C24.4215 50.2068 26.2722 48.1541 26.0507 45.609C25.9969 45.0026 24.4392 42.7073 23.8488 43.6703C22.16 46.4235 20.6554 50.5639 21.5181 53.9996C22.0685 56.1899 23.5813 57.4322 25.2417 58.4841C26.6381 59.3676 29.0513 60.1614 29.7854 61.8978C30.8051 64.3077 28.4633 67.3828 28.2079 69.8286C27.6571 75.1308 31.2701 80.348 35.326 82.5476C36.3928 83.125 37.7116 83.5219 38.5803 84.4785C40.568 86.6659 38.5018 90.7228 38.5687 93.3778C38.6336 96.0186 40.5246 98.6903 42.7328 99.3179C42.8485 99.3506 43.7203 99.3674 43.572 99.0851Z" fill="url(#paint2_linear_700_1099)"/>
<path fill-rule="evenodd" clip-rule="evenodd" d="M67.7921 80.8263C68.3778 75.1123 62.8411 72.2233 58.9653 70.6017C55.5572 69.1769 51.4812 67.4382 51.9084 62.3155C52.0629 60.4714 52.6318 58.9933 52.0379 57.144C51.4727 55.3841 50.2679 54.4187 49.0171 53.3103C47.1277 51.6327 45.8693 49.5224 46.3148 46.6009C46.5107 45.303 47.0731 44.0989 47.2664 42.7971C47.7997 39.1826 45.2434 35.4641 42.1975 34.4951C41.779 34.3619 41.1592 35.8083 41.5438 36.0463C42.0826 36.3769 42.6577 36.6335 43.1925 36.964C44.6581 37.8732 45.2493 38.3917 45.7989 40.2425C46.4248 42.3522 45.7724 43.2861 45.4206 45.2662C45.1323 46.9031 45.24 48.6119 45.6864 50.1994C46.1698 51.9083 47.0295 53.3872 48.2273 54.5505C49.6049 55.8879 51.0977 56.9058 51.2253 59.3124C51.281 60.3255 50.7444 61.614 50.7231 62.67C50.6447 66.7819 53.275 69.9705 56.431 71.5155C60.6384 73.5755 66.8718 73.9854 66.9993 80.7333C67.0029 80.9482 67.7717 81.029 67.7921 80.8263Z" fill="url(#paint3_linear_700_1099)"/>
<path fill-rule="evenodd" clip-rule="evenodd" d="M33.7785 88.5295C30.5418 82.608 39.9687 77.8523 36.847 71.9017C34.4057 67.2484 26.2886 68.6578 27.5306 61.1687C28.1202 57.6196 31.4535 57.0478 32.8485 54.0394C33.532 52.5648 33.7883 50.8331 33.7021 49.178C33.4615 44.5904 30.5298 41.8144 27.4577 39.3503C27.0148 38.9941 26.4548 40.7918 26.9452 41.0539C27.7561 41.4878 28.6244 41.8702 29.33 42.5055C30.3119 43.3868 32.8157 47.952 32.8837 49.3881C32.9808 51.4131 32.2309 53.2528 30.8729 54.5494C29.5346 55.828 28.1149 56.6645 27.3137 58.513C26.1204 61.2735 26.1904 65.1256 27.9451 67.5633C30.0276 70.4589 34.5055 69.9331 36.0721 73.3572C38.5885 78.858 29.5544 83.4484 32.7828 89.2804C32.9444 89.5727 33.9483 88.8376 33.7785 88.5295Z" fill="url(#paint4_linear_700_1099)"/>
<path fill-rule="evenodd" clip-rule="evenodd" d="M56.5433 100.247C56.5566 95.9371 51.9934 92.9419 49.3416 90.6881C48.2938 89.7987 47.155 88.977 46.2961 87.841C44.9839 86.1029 45.1382 84.0414 45.6662 81.9653C46.3448 79.2938 47.409 76.7507 48.1765 74.1116C49.7768 68.6081 45.9319 64.04 41.9415 61.6546C40.9687 61.0739 39.6531 60.7602 38.777 60.022C36.9701 58.4984 37.2144 55.9126 37.4597 53.6957C37.8287 50.3569 39.6392 47.2682 39.3831 43.9283C39.3559 43.5876 39.0131 41.8106 38.4173 42.355C35.6879 44.846 34.7825 49.5483 34.4813 53.3912C34.2539 56.3165 34.694 58.9399 36.8161 60.7938C39.5235 63.1588 43.0875 63.4405 45.0704 67.0157C46.7827 70.1034 46.1817 73.7115 45.1843 76.9247C43.6732 81.7952 43.1315 86.5996 46.408 90.7355C47.8284 92.5293 49.4479 93.1359 51.1684 94.3699C53.2528 95.8651 54.5367 97.602 55.5266 100.147C55.6052 100.351 56.5442 100.5 56.5433 100.247Z" fill="url(#paint5_linear_700_1099)"/>
<path fill-rule="evenodd" clip-rule="evenodd" d="M24.0342 77.0498C22.685 75.2466 20.7308 73.6779 20.3727 71.167C20.0929 69.2218 21.2254 67.8045 21.6036 65.9635C22.0935 63.5873 21.4749 62.1384 19.7423 60.7263C18.8458 59.9971 17.5562 59.6179 16.7689 58.74C14.9185 56.6802 17.4694 54.1781 17.9075 52.1496C18.2259 50.6695 17.1767 45.3654 15.4026 46.7241C15.2851 46.8139 14.4957 47.7653 14.8281 47.9136C17.7023 49.1992 15.4419 51.8362 14.7436 53.5882C14.3079 54.6836 14.0052 55.8586 14.3001 57.0626C14.7282 58.8096 16.1476 59.8944 17.4241 60.7554C19.6139 62.2357 20.9488 63.3309 20.1855 66.5026C19.8834 67.754 19.6035 69.0216 19.4632 70.3154C19.1243 73.4494 21.0701 75.75 23.367 77.1096C23.4476 77.1575 24.1492 77.2017 24.0342 77.0498Z" fill="url(#paint6_linear_700_1099)"/>
<path fill-rule="evenodd" clip-rule="evenodd" d="M63.7354 63.5973C62.0393 60.5034 64.676 56.8181 65.0352 53.6248C65.3765 50.5918 63.7686 48.8277 61.4182 47.7827C59.0039 46.7094 57.3035 46.4336 58.2412 42.9302C58.7133 41.158 59.2374 39.8483 58.7048 37.9738C57.7024 34.4606 54.6284 33.3147 51.7559 33.0444C50.9129 32.9653 52.01 35.2096 52.9769 34.9819C55.9571 34.28 57.576 38.1035 57.0357 40.9162C56.8036 42.1197 56.2402 43.0303 56.375 44.3062C56.6215 46.6626 58.3135 48.252 60.0804 49.1668C61.292 49.793 62.9306 50.1298 63.7747 51.4454C65.0086 53.3753 63.8484 55.838 63.1473 57.693C62.4228 59.6111 61.8089 61.719 62.9827 63.5616C63.0981 63.7434 63.8111 63.7378 63.7354 63.5973Z" fill="url(#paint7_linear_700_1099)"/>
<path fill-rule="evenodd" clip-rule="evenodd" d="M9.19027 42.1549C9.19027 42.1549 3.02445 52.6148 8.08559 55.5857C13.1467 58.5565 11.6466 50.5164 15.9587 49.4672C20.2708 48.418 19.9977 55.7433 25.0774 52.2149C30.1551 48.687 26.0573 45.0989 30.1678 43.411C34.2784 41.7228 36.2163 52.5564 42.2688 49.4833C47.5129 46.8207 41.2817 39.7901 46.3594 36.2622C51.4391 32.7338 53.4052 40.8908 57.156 37.2189C61.4767 32.9882 55.1836 30.0926 61.4315 30.0728C66.4053 30.0574 63.4821 23.5947 55.1144 24.8666C46.7468 26.1388 9.19027 42.1549 9.19027 42.1549Z" fill="url(#paint8_linear_700_1099)"/>
<path fill-rule="evenodd" clip-rule="evenodd" d="M9.39239 42.3816C8.9824 43.0994 5.66055 49.0913 6.51843 52.8962C6.76448 53.988 7.34555 54.809 8.24237 55.3364C9.23332 55.9181 10.0064 56.0904 10.6014 55.8648C11.4395 55.5471 11.8991 54.4759 12.43 53.2356C13.142 51.5734 13.9502 49.6893 15.949 49.203C18.0004 48.7033 19.0958 50.0091 20.0708 51.1584C21.282 52.5884 22.3274 53.8237 24.9798 51.9802C27.5331 50.2059 27.669 48.4404 27.7893 46.8829C27.9018 45.414 28.0095 44.0265 30.1054 43.1654C32.0737 42.3573 33.5431 44.1671 35.0958 46.0842C37.0005 48.4335 38.9688 50.8641 42.1728 49.2366C44.6412 47.9831 44.4071 45.7713 44.1366 43.2105C43.8737 40.7192 43.5748 37.8955 46.2291 36.0507C48.9644 34.1508 50.8468 35.4974 52.5059 36.6858C54.0643 37.8013 55.2939 38.6812 56.9784 37.0316C58.9271 35.1231 58.6095 33.5733 58.3523 32.3287C58.2134 31.6464 58.0915 31.0577 58.4153 30.5899C58.7844 30.0564 59.6502 29.8372 61.3995 29.8315C62.4765 29.8283 63.2426 29.5004 63.5001 28.9316C63.6821 28.5309 63.6034 28.0211 63.2788 27.4957C62.3115 25.9225 59.3462 24.522 55.1234 25.1638C55.0188 25.1797 54.9067 25.1987 54.7907 25.2196C46.1267 26.7871 11.2161 41.6056 9.39239 42.3816ZM10.4205 56.4621C9.76237 56.5811 8.97538 56.3665 8.02839 55.8114C7.00671 55.2113 6.34718 54.2748 6.06566 53.0287C5.1058 48.7643 8.8839 42.2867 9.04532 42.0129L9.08784 41.942L9.1562 41.9121C9.53275 41.752 46.7881 25.8918 55.0622 24.6348C59.5019 23.9598 62.5798 25.4314 63.6613 27.1888C64.0901 27.885 64.18 28.5913 63.9149 29.1773C63.5694 29.9391 62.6773 30.3607 61.4011 30.3652C59.8731 30.3695 59.0417 30.5464 58.7815 30.921C58.5988 31.1862 58.6914 31.6364 58.8087 32.2062C59.063 33.4449 59.4475 35.3171 57.2825 37.437C55.3375 39.343 53.7703 38.2222 52.2566 37.1383C50.6376 35.9779 48.9607 34.7775 46.4736 36.5064C44.0745 38.173 44.331 40.5887 44.6011 43.1466C44.8686 45.6856 45.146 48.311 42.3614 49.7248C41.846 49.9869 41.3574 50.1523 40.8938 50.2364C38.218 50.721 36.3932 48.4685 34.7535 46.4466C33.2448 44.5855 31.9424 42.9778 30.2638 43.6677C28.4479 44.4133 28.3667 45.4689 28.2551 46.9296C28.1326 48.5298 27.9798 50.5213 25.2224 52.4364C22.2503 54.5014 20.9714 52.9907 19.7337 51.5298C18.7583 50.3778 17.8382 49.2903 16.0457 49.7252C14.2709 50.1572 13.5479 51.8417 12.8493 53.4704C12.2955 54.7629 11.7739 55.983 10.7483 56.3715C10.6431 56.4114 10.5345 56.4415 10.4205 56.4621Z" fill="#FFC7E8"/>
<path fill-rule="evenodd" clip-rule="evenodd" d="M8.20748 45.7904C8.20748 45.7904 -3.19919 19.3588 23.2043 8.51722C49.6078 -2.32462 55.6774 25.1237 55.6774 25.1237C55.6774 25.1237 48.9566 33.1672 33.9347 39.3355C18.9127 45.504 8.20748 45.7904 8.20748 45.7904Z" fill="url(#paint9_linear_700_1099)"/>
<path fill-rule="evenodd" clip-rule="evenodd" d="M12.4241 40.16C8.34046 37.7202 5.85443 29.1952 12.4137 21.2776C18.973 13.3602 27.5661 14.2362 29.661 17.5965C31.7559 20.9569 26.7894 23.9123 26.4181 28.2796C26.0448 32.6476 31.6627 27.3308 32.9884 31.0173C34.3141 34.704 20.2036 44.8039 12.4241 40.16Z" fill="url(#paint10_linear_700_1099)"/>
<path fill-rule="evenodd" clip-rule="evenodd" d="M42.1675 13.4008C41.2585 15.4149 45.5206 18.619 46.5363 22.3812C47.5499 26.1437 52.4472 28.2641 50.9252 20.8355C49.4013 13.4075 43.5497 10.3322 42.1675 13.4008Z" fill="url(#paint11_linear_700_1099)"/>
<defs>
<linearGradient id="paint0_linear_700_1099" x1="41.0731" y1="38.6702" x2="54.2407" y2="111.454" gradientUnits="userSpaceOnUse">
<stop stop-color="#FB8B9A"/>
<stop offset="1" stop-color="#E76072" stop-opacity="0.21"/>
</linearGradient>
<linearGradient id="paint1_linear_700_1099" x1="48.4204" y1="31.7781" x2="61.4379" y2="103.733" gradientUnits="userSpaceOnUse">
<stop stop-color="#EF7C8D"/>
<stop offset="1" stop-color="#EF7C8D" stop-opacity="0"/>
</linearGradient>
<linearGradient id="paint2_linear_700_1099" x1="27.8442" y1="42.7749" x2="38.2383" y2="100.229" gradientUnits="userSpaceOnUse">
<stop stop-color="#EF7C8D"/>
<stop offset="1" stop-color="#EF7C8D" stop-opacity="0"/>
</linearGradient>
<linearGradient id="paint3_linear_700_1099" x1="51.1914" y1="32.8459" x2="60.1363" y2="82.2893" gradientUnits="userSpaceOnUse">
<stop stop-color="#FB8B9A"/>
<stop offset="1" stop-color="#E76072"/>
</linearGradient>
<linearGradient id="paint4_linear_700_1099" x1="27.9098" y1="39.1972" x2="36.8547" y2="88.6406" gradientUnits="userSpaceOnUse">
<stop stop-color="#FB8B9A"/>
<stop offset="1" stop-color="#E76072" stop-opacity="0.21"/>
</linearGradient>
<linearGradient id="paint5_linear_700_1099" x1="40.5229" y1="41.9075" x2="51.2668" y2="101.295" gradientUnits="userSpaceOnUse">
<stop stop-color="#EF7C8D"/>
<stop offset="1" stop-color="#EF7C8D" stop-opacity="0"/>
</linearGradient>
<linearGradient id="paint6_linear_700_1099" x1="16.301" y1="46.432" x2="21.9228" y2="77.5068" gradientUnits="userSpaceOnUse">
<stop stop-color="#FB8B9A"/>
<stop offset="1" stop-color="#E76072" stop-opacity="0.21"/>
</linearGradient>
<linearGradient id="paint7_linear_700_1099" x1="56.7722" y1="32.1214" x2="62.5189" y2="63.8867" gradientUnits="userSpaceOnUse">
<stop stop-color="#FB8B9A"/>
<stop offset="1" stop-color="#E76072" stop-opacity="0.21"/>
</linearGradient>
<linearGradient id="paint8_linear_700_1099" x1="33.3971" y1="28.7909" x2="37.4698" y2="51.3028" gradientUnits="userSpaceOnUse">
<stop stop-color="#FFBDC8"/>
<stop offset="1" stop-color="#FF738B"/>
</linearGradient>
<linearGradient id="paint9_linear_700_1099" x1="27.4893" y1="6.89633" x2="33.7607" y2="41.5619" gradientUnits="userSpaceOnUse">
<stop stop-color="#FBAEBC"/>
<stop offset="1" stop-color="#FE708A"/>
</linearGradient>
<linearGradient id="paint10_linear_700_1099" x1="18.5039" y1="15.9385" x2="22.9514" y2="40.5221" gradientUnits="userSpaceOnUse">
<stop stop-color="#FBC4CD"/>
<stop offset="1" stop-color="#FBC4CD" stop-opacity="0"/>
</linearGradient>
<linearGradient id="paint11_linear_700_1099" x1="45.723" y1="11.8701" x2="48.2965" y2="26.0954" gradientUnits="userSpaceOnUse">
<stop stop-color="#FBC4CD"/>
<stop offset="1" stop-color="#FBC4CD" stop-opacity="0"/>
</linearGradient>
</defs>
</svg>
