<svg width="78" height="107" viewBox="0 0 78 107" fill="none" xmlns="http://www.w3.org/2000/svg">
<path fill-rule="evenodd" clip-rule="evenodd" d="M57.9725 99.9371C54.8391 96.6281 49.8153 93.4027 52.4025 88.0347C53.3643 86.0402 54.4771 84.3067 54.9735 82.1034C56.0089 77.512 54.3225 72.4126 49.9727 70.3674C49.0692 69.9424 48.0859 69.7262 47.1566 69.372C44.5646 68.386 42.9643 66.4235 43.1785 63.5754C43.4163 60.4199 45.1985 57.6862 46.0149 54.6921C46.6892 52.2148 46.9079 49.553 45.4109 47.349C44.7109 46.316 43.6993 45.5509 42.9348 44.5757C40.7656 41.8058 40.5073 37.877 41.9293 34.6798C42.0745 34.3533 41.0126 34.7478 40.913 35.1574C40.2291 37.9665 38.5668 40.3022 39.7091 43.3108C40.3871 45.0946 42.0302 45.9541 43.1025 47.4374C44.7628 49.7325 44.3719 52.2193 43.5156 54.7476C41.6427 60.2829 38.7487 65.8575 44.5797 69.9258C47.2668 71.7986 49.8308 72.9852 51.8796 75.6634C54.2203 78.7216 54.1211 81.8754 52.428 85.1682C51.1676 87.6191 50.283 89.8739 50.8472 92.6844C51.4858 95.8682 54.3557 98.7573 57.1372 100.161C57.2745 100.229 58.1362 100.11 57.9725 99.9371Z" fill="url(#paint0_linear_281_459)"/>
<path fill-rule="evenodd" clip-rule="evenodd" d="M65.6921 92.9036C61.7804 88.2722 65.8278 83.5342 65.7197 78.4022C65.6819 76.5966 65.0711 74.892 64.1699 73.3575C62.7548 70.9505 60.512 70.4353 58.3931 68.917C55.273 66.6789 57.3829 63.6362 58.8257 61.1001C60.0149 59.0102 60.6934 56.8692 60.469 54.4299C60.2805 52.3791 59.5845 50.4684 58.2945 48.8782C56.9644 47.2408 52.8741 45.5197 52.7751 43.3736C52.668 41.084 54.1731 39.2504 53.3225 36.8718C52.3316 34.1048 49.6536 32.9078 47.1829 31.8608C46.3208 31.4962 43.0117 29.1598 42.6266 29.3913C42.2321 29.6276 42.2238 29.7187 42.1988 30.2276C42.0906 32.3026 45.3174 33.2962 46.6385 33.904C48.1554 34.6015 50.2501 35.6229 50.6198 37.499C50.8443 38.6388 50.342 39.7981 50.0895 40.8804C49.4817 43.4757 50.1557 45.0737 52.3083 46.5327C57.1022 49.7804 58.1821 55.6273 55.2667 60.6122C53.9637 62.838 52.3308 65.3871 53.9399 67.9367C55.2959 70.0825 57.9952 70.6151 60.0559 71.7461C64.3338 74.095 65.3343 78.5392 63.9471 82.9285C63.4866 84.3822 62.8357 85.8074 62.5893 87.3235C62.2462 89.452 62.6294 91.9665 64.6369 93.0444C64.7861 93.1232 65.8751 93.1203 65.6921 92.9036Z" fill="url(#paint1_linear_281_459)"/>
<path fill-rule="evenodd" clip-rule="evenodd" d="M44.9782 89.2236C44.1581 87.8286 42.8036 86.9276 41.9922 85.5225C40.7521 83.3737 41.371 81.4402 41.7242 79.1747C41.979 77.5465 41.7083 75.86 40.6593 74.5556C39.1719 72.7078 36.7636 72.4535 34.8682 71.2375C32.3966 69.6515 31.93 65.5837 32.6228 62.9084C33.1974 60.6906 34.9847 58.6607 34.4084 56.2416C33.9796 54.4388 32.543 53.1159 31.0842 52.1268C29.2296 50.8681 26.9625 49.7898 26.2543 47.4482C25.4875 44.9154 27.371 43.0546 27.1456 40.7475C27.0909 40.1978 25.5055 38.1171 24.9046 38.9901C23.1858 41.4858 21.6545 45.2391 22.5325 48.3536C23.0926 50.3391 24.6324 51.4653 26.3223 52.4188C27.7435 53.2197 30.1995 53.9392 30.9467 55.5133C31.9845 57.6979 29.6011 60.4854 29.3412 62.7025C28.7806 67.509 32.4577 72.2384 36.5857 74.2323C37.6715 74.7558 39.0137 75.1155 39.8978 75.9827C41.9208 77.9656 39.818 81.6431 39.886 84.0498C39.9521 86.4437 41.8767 88.8657 44.1241 89.4346C44.2419 89.4642 45.1292 89.4794 44.9782 89.2236Z" fill="url(#paint2_linear_281_459)"/>
<path fill-rule="evenodd" clip-rule="evenodd" d="M69.6288 72.672C70.2248 67.4922 64.5898 64.8733 60.6451 63.4034C57.1765 62.1118 53.0281 60.5357 53.4629 55.8919C53.6201 54.2203 54.1991 52.8804 53.5947 51.204C53.0194 49.6087 51.7933 48.7336 50.5202 47.7288C48.5972 46.208 47.3165 44.2951 47.7699 41.6467C47.9692 40.4701 48.5417 39.3786 48.7384 38.1985C49.2811 34.922 46.6794 31.5512 43.5795 30.6728C43.1535 30.5521 42.5227 31.8632 42.9141 32.0789C43.4625 32.3786 44.0478 32.6113 44.5921 32.9108C46.0838 33.735 46.6854 34.2051 47.2448 35.8828C47.8818 37.7952 47.2178 38.6419 46.8598 40.4368C46.5664 41.9207 46.676 43.4697 47.1303 44.9087C47.6224 46.4579 48.4973 47.7985 49.7164 48.853C51.1184 50.0653 52.6378 50.9881 52.7677 53.1696C52.8243 54.088 52.2782 55.256 52.2565 56.2133C52.1767 59.9407 54.8538 62.8312 58.0659 64.2317C62.348 66.0991 68.6921 66.4707 68.8219 72.5876C68.8255 72.7824 69.608 72.8557 69.6288 72.672Z" fill="url(#paint3_linear_281_459)"/>
<path fill-rule="evenodd" clip-rule="evenodd" d="M35.011 79.6549C31.7168 74.2871 41.3112 69.976 38.134 64.5819C35.6493 60.3637 27.3881 61.6413 28.6521 54.8524C29.2522 51.6351 32.6447 51.1168 34.0645 48.3897C34.7602 47.053 35.021 45.4831 34.9333 43.9828C34.6884 39.8242 31.7046 37.3078 28.5779 35.074C28.1271 34.7512 27.5572 36.3808 28.0563 36.6183C28.8816 37.0117 29.7654 37.3583 30.4835 37.9342C31.4829 38.7332 34.0311 42.8715 34.1003 44.1733C34.1992 46.009 33.4359 47.6766 32.0538 48.852C30.6918 50.011 29.2468 50.7694 28.4314 52.445C27.2169 54.9474 27.2881 58.4393 29.074 60.6491C31.1935 63.2739 35.7509 62.7973 37.3453 65.9013C39.9065 70.8877 30.7119 75.0489 33.9976 80.3356C34.1621 80.6006 35.1839 79.9342 35.011 79.6549Z" fill="url(#paint4_linear_281_459)"/>
<path fill-rule="evenodd" clip-rule="evenodd" d="M58.18 90.2764C58.1936 86.3699 53.5493 83.6548 50.8504 81.6117C49.784 80.8054 48.6249 80.0606 47.7508 79.0308C46.4153 77.4552 46.5723 75.5865 47.1097 73.7045C47.8004 71.2828 48.8835 68.9775 49.6646 66.5852C51.2933 61.5962 47.3801 57.4553 43.3188 55.2928C42.3288 54.7665 40.9898 54.4821 40.0981 53.813C38.2591 52.4318 38.5078 50.0878 38.7574 48.0781C39.133 45.0515 40.9756 42.2516 40.7149 39.224C40.6873 38.9152 40.3384 37.3044 39.732 37.7978C36.9542 40.0559 36.0326 44.3186 35.7261 47.8021C35.4947 50.4539 35.9426 52.832 38.1024 54.5126C40.8578 56.6564 44.4852 56.9118 46.5033 60.1527C48.246 62.9517 47.6344 66.2225 46.6192 69.1352C45.0812 73.5503 44.53 77.9055 47.8647 81.6547C49.3103 83.2807 50.9586 83.8307 52.7097 84.9492C54.8311 86.3047 56.1378 87.8791 57.1453 90.186C57.2253 90.3715 58.181 90.5062 58.18 90.2764Z" fill="url(#paint5_linear_281_459)"/>
<path fill-rule="evenodd" clip-rule="evenodd" d="M25.0936 69.2486C23.7205 67.614 21.7316 66.192 21.367 63.9159C21.0823 62.1526 22.2349 60.8678 22.6199 59.199C23.1185 57.0449 22.4889 55.7315 20.7255 54.4514C19.8131 53.7904 18.5005 53.4466 17.6993 52.6508C15.816 50.7836 18.4122 48.5155 18.8581 46.6767C19.1821 45.335 18.1143 40.5268 16.3087 41.7585C16.1891 41.8398 15.3857 42.7023 15.7239 42.8368C18.6492 44.0021 16.3487 46.3926 15.638 47.9808C15.1946 48.9738 14.8865 50.0388 15.1866 51.1303C15.6223 52.714 17.0669 53.6973 18.3661 54.4778C20.5948 55.8197 21.9534 56.8125 21.1766 59.6876C20.8691 60.822 20.5842 61.9711 20.4414 63.144C20.0965 65.9849 22.0769 68.0704 24.4146 69.3028C24.4966 69.3463 25.2107 69.3864 25.0936 69.2486Z" fill="url(#paint6_linear_281_459)"/>
<path fill-rule="evenodd" clip-rule="evenodd" d="M65.5005 57.054C63.7743 54.2493 66.4578 50.9086 66.8234 48.0139C67.1707 45.2644 65.5342 43.6653 63.1422 42.7181C60.6849 41.7451 58.9543 41.495 59.9087 38.3192C60.3891 36.7127 60.9225 35.5255 60.3805 33.8262C59.3603 30.6416 56.2316 29.6029 53.3082 29.3578C52.4502 29.2861 53.5668 31.3206 54.5508 31.1141C57.584 30.4779 59.2316 33.9439 58.6817 36.4935C58.4455 37.5845 57.8721 38.41 58.0093 39.5666C58.2602 41.7027 59.9823 43.1435 61.7805 43.9727C63.0137 44.5403 64.6814 44.8457 65.5404 46.0383C66.7963 47.7877 65.6155 50.0201 64.9019 51.7017C64.1646 53.4405 63.5397 55.3513 64.7343 57.0216C64.8518 57.1864 65.5775 57.1813 65.5005 57.054Z" fill="url(#paint7_linear_281_459)"/>
<path fill-rule="evenodd" clip-rule="evenodd" d="M9.986 37.6164C9.986 37.6164 3.71064 47.0984 8.86169 49.7914C14.0127 52.4845 12.486 45.1961 16.8747 44.2451C21.2634 43.294 20.9854 49.9343 26.1554 46.7359C31.3233 43.5378 27.1526 40.2852 31.3362 38.7551C35.5198 37.2248 37.4921 47.0454 43.6521 44.2596C48.9894 41.846 42.6475 35.4728 47.8155 32.2747C52.9854 29.0763 54.9865 36.4705 58.8039 33.142C63.2014 29.3069 56.7964 26.682 63.1553 26.6641C68.2175 26.6501 65.2424 20.7917 56.726 21.9447C48.2097 23.0979 9.986 37.6164 9.986 37.6164Z" fill="url(#paint8_linear_281_459)"/>
<path fill-rule="evenodd" clip-rule="evenodd" d="M10.1916 37.8219C9.77436 38.4726 6.3935 43.9042 7.26661 47.3533C7.51703 48.3431 8.10843 49.0873 9.02118 49.5654C10.0297 50.0927 10.8165 50.2489 11.4221 50.0443C12.2751 49.7564 12.7429 48.7853 13.2832 47.6611C14.0079 46.1542 14.8304 44.4463 16.8647 44.0055C18.9525 43.5525 20.0674 44.7362 21.0597 45.778C22.2925 47.0743 23.3564 48.1941 26.056 46.523C28.6547 44.9146 28.7929 43.3142 28.9154 41.9023C29.0299 40.5708 29.1395 39.313 31.2726 38.5324C33.2759 37.7998 34.7714 39.4404 36.3517 41.1782C38.2902 43.308 40.2935 45.5113 43.5544 44.036C46.0667 42.8996 45.8284 40.8947 45.5531 38.5733C45.2855 36.3149 44.9813 33.7552 47.6828 32.083C50.4666 30.3607 52.3825 31.5813 54.0711 32.6586C55.6571 33.6699 56.9086 34.4675 58.6231 32.9722C60.6063 31.2421 60.2831 29.8372 60.0213 28.7089C59.88 28.0905 59.7559 27.5568 60.0855 27.1328C60.4611 26.6491 61.3423 26.4504 63.1227 26.4453C64.2188 26.4423 64.9985 26.1451 65.2606 25.6295C65.4459 25.2662 65.3657 24.8041 65.0354 24.3279C64.0509 22.9017 61.0329 21.6322 56.735 22.214C56.6287 22.2284 56.5145 22.2456 56.3965 22.2646C47.5786 23.6855 12.0478 37.1185 10.1916 37.8219ZM11.2378 50.5858C10.568 50.6937 9.767 50.4991 8.80319 49.9959C7.76335 49.452 7.09211 48.603 6.80559 47.4735C5.82867 43.6078 9.67389 37.7358 9.83818 37.4877L9.88146 37.4233L9.95104 37.3963C10.3343 37.2511 48.2515 22.8739 56.6726 21.7344C61.1912 21.1225 64.3238 22.4565 65.4244 24.0496C65.8609 24.6807 65.9524 25.321 65.6825 25.8522C65.3309 26.5428 64.4229 26.9249 63.1241 26.929C61.569 26.9329 60.7228 27.0932 60.458 27.4329C60.272 27.6732 60.3663 28.0814 60.4856 28.5978C60.7445 29.7207 61.1358 31.4179 58.9323 33.3396C56.9527 35.0674 55.3577 34.0513 53.8171 33.0688C52.1694 32.0169 50.4627 30.9287 47.9314 32.496C45.4897 34.0068 45.7507 36.1966 46.0256 38.5153C46.2978 40.817 46.5802 43.1968 43.7462 44.4784C43.2216 44.716 42.7243 44.866 42.2524 44.9422C39.5291 45.3815 37.6719 43.3396 36.003 41.5068C34.4675 39.8197 33.142 38.3623 31.4336 38.9877C29.5855 39.6636 29.5028 40.6205 29.3892 41.9446C29.2645 43.3952 29.109 45.2005 26.3027 46.9365C23.2777 48.8084 21.9761 47.4389 20.7164 46.1147C19.7237 45.0704 18.7873 44.0846 16.9629 44.4789C15.1566 44.8704 14.4207 46.3974 13.7098 47.8738C13.1461 49.0455 12.6152 50.1515 11.5714 50.5037C11.4643 50.5399 11.3538 50.5671 11.2378 50.5858Z" fill="#FFC7E8"/>
<path fill-rule="evenodd" clip-rule="evenodd" d="M8.98568 40.912C8.98568 40.912 -2.62364 16.9518 24.2489 7.12386C51.1215 -2.70425 57.2989 22.1776 57.2989 22.1776C57.2989 22.1776 50.4587 29.469 35.1699 35.0605C19.8811 40.6523 8.98568 40.912 8.98568 40.912Z" fill="url(#paint9_linear_281_459)"/>
<path fill-rule="evenodd" clip-rule="evenodd" d="M13.2769 35.8081C9.12072 33.5965 6.59051 25.8686 13.2663 18.6913C19.9422 11.5142 28.6879 12.3083 30.82 15.3544C32.9521 18.4006 27.8974 21.0796 27.5195 25.0387C27.1395 28.9982 32.8573 24.1785 34.2065 27.5203C35.5557 30.8623 21.1946 40.0178 13.2769 35.8081Z" fill="url(#paint10_linear_281_459)"/>
<path fill-rule="evenodd" clip-rule="evenodd" d="M43.5491 11.5509C42.6239 13.3766 46.9618 16.2811 47.9954 19.6916C49.0271 23.1022 54.0114 25.0244 52.4624 18.2904C50.9114 11.5569 44.9558 8.76918 43.5491 11.5509Z" fill="url(#paint11_linear_281_459)"/>
<defs>
<linearGradient id="paint0_linear_281_459" x1="42.4349" y1="34.4574" x2="53.1364" y2="100.871" gradientUnits="userSpaceOnUse">
<stop stop-color="#FB8B9A"/>
<stop offset="1" stop-color="#E76072" stop-opacity="0.21"/>
</linearGradient>
<linearGradient id="paint1_linear_281_459" x1="49.9136" y1="28.2099" x2="60.4933" y2="93.8674" gradientUnits="userSpaceOnUse">
<stop stop-color="#EF7C8D"/>
<stop offset="1" stop-color="#EF7C8D" stop-opacity="0"/>
</linearGradient>
<linearGradient id="paint2_linear_281_459" x1="28.971" y1="38.1784" x2="37.4185" y2="90.6036" gradientUnits="userSpaceOnUse">
<stop stop-color="#EF7C8D"/>
<stop offset="1" stop-color="#EF7C8D" stop-opacity="0"/>
</linearGradient>
<linearGradient id="paint3_linear_281_459" x1="52.7331" y1="29.1778" x2="60.0028" y2="74.2937" gradientUnits="userSpaceOnUse">
<stop stop-color="#FB8B9A"/>
<stop offset="1" stop-color="#E76072"/>
</linearGradient>
<linearGradient id="paint4_linear_281_459" x1="29.0381" y1="34.9353" x2="36.3078" y2="80.0512" gradientUnits="userSpaceOnUse">
<stop stop-color="#FB8B9A"/>
<stop offset="1" stop-color="#E76072" stop-opacity="0.21"/>
</linearGradient>
<linearGradient id="paint5_linear_281_459" x1="41.875" y1="37.3921" x2="50.6068" y2="91.5816" gradientUnits="userSpaceOnUse">
<stop stop-color="#EF7C8D"/>
<stop offset="1" stop-color="#EF7C8D" stop-opacity="0"/>
</linearGradient>
<linearGradient id="paint6_linear_281_459" x1="17.2231" y1="41.4937" x2="21.792" y2="69.8486" gradientUnits="userSpaceOnUse">
<stop stop-color="#FB8B9A"/>
<stop offset="1" stop-color="#E76072" stop-opacity="0.21"/>
</linearGradient>
<linearGradient id="paint7_linear_281_459" x1="58.4135" y1="28.5211" x2="63.084" y2="57.5062" gradientUnits="userSpaceOnUse">
<stop stop-color="#FB8B9A"/>
<stop offset="1" stop-color="#E76072" stop-opacity="0.21"/>
</linearGradient>
<linearGradient id="paint8_linear_281_459" x1="34.6229" y1="25.502" x2="37.9328" y2="46.0436" gradientUnits="userSpaceOnUse">
<stop stop-color="#FFBDC8"/>
<stop offset="1" stop-color="#FF738B"/>
</linearGradient>
<linearGradient id="paint9_linear_281_459" x1="28.61" y1="5.65452" x2="33.7069" y2="37.286" gradientUnits="userSpaceOnUse">
<stop stop-color="#FBAEBC"/>
<stop offset="1" stop-color="#FE708A"/>
</linearGradient>
<linearGradient id="paint10_linear_281_459" x1="19.4647" y1="13.8514" x2="23.0792" y2="36.2833" gradientUnits="userSpaceOnUse">
<stop stop-color="#FBC4CD"/>
<stop offset="1" stop-color="#FBC4CD" stop-opacity="0"/>
</linearGradient>
<linearGradient id="paint11_linear_281_459" x1="47.1677" y1="10.1633" x2="49.2593" y2="23.1436" gradientUnits="userSpaceOnUse">
<stop stop-color="#FBC4CD"/>
<stop offset="1" stop-color="#FBC4CD" stop-opacity="0"/>
</linearGradient>
</defs>
</svg>
