<svg width="39" height="38" viewBox="0 0 39 38" fill="none" xmlns="http://www.w3.org/2000/svg">
<g clip-path="url(#clip0_702_92)">
<path d="M24.4277 35C31.9709 35 39.1997 30.3137 34.1709 21.566C35.4281 15.3176 35.1138 14.6928 33.5422 10.9437C39.8283 3.44569 35.1138 -0.303341 28.5372 3.44569M12.7987 35C4.62708 35 -1.34463 28.9441 3.68412 21.566C2.42693 15.3176 3.05553 15.0052 4.31259 10.9437C-1.97337 3.44566 3.36977 -0.303333 9.65564 3.44568C13.3777 1.87932 16.27 1.05241 19.0845 1.00241C22.0326 0.950036 24.8955 1.75011 28.5372 3.44569M28.2232 3.30086L28.5372 3.44569" stroke="black" stroke-width="2.5"/>
<path d="M11.7939 11.3912C9.4606 12.0126 11.2805 19.3387 13.6138 18.7172C15.9471 18.0958 14.128 10.7695 11.7939 11.3912Z" fill="#232327"/>
<ellipse cx="19.0847" cy="23.4406" rx="2.20008" ry="1.87451" fill="black"/>
<path d="M25.6849 25.9837C28.1993 25.5463 34.171 28.4831 34.4853 30.0452" stroke="black"/>
<path d="M11.5416 25.9837C9.02725 25.5463 3.3699 28.4831 3.05554 30.0452" stroke="black"/>
<path d="M32.2852 32.1706C28.5136 29.0464 27.2564 28.2966 25.6849 27.8143" stroke="black"/>
<path d="M11.5415 27.8143C9.97004 28.2966 9.34145 28.1092 5.56989 32.1706" stroke="black"/>
<path d="M10.0199 21.566C4.99114 28.7517 9.9701 32.8131 19.3989 30.3138" stroke="black" stroke-width="1.5"/>
<path d="M19.399 30.3138C28.8279 32.8131 33.6996 28.7517 28.6708 21.566" stroke="black" stroke-width="1.5"/>
<path d="M19.0847 30.6262C19.3563 29.9019 19.4844 30.0885 19.7132 30.6262" stroke="black"/>
<path d="M26.3304 11.4295C23.9971 10.8081 21.8881 18.0572 24.2214 18.6786C26.5547 19.3001 28.6645 12.0512 26.3304 11.4295Z" fill="#232327"/>
</g>
<defs>
<clipPath id="clip0_702_92">
<rect width="38" height="38" fill="white" transform="translate(0.5)"/>
</clipPath>
</defs>
</svg>
