<svg width="38" height="38" viewBox="0 0 38 38" fill="none" xmlns="http://www.w3.org/2000/svg">
<g clip-path="url(#clip0_704_259)">
<path d="M23.9277 35C31.4709 35 38.6997 30.3137 33.6709 21.566C34.9281 15.3176 34.6138 14.6928 33.0422 10.9437C39.3283 3.44569 34.6138 -0.303341 28.0372 3.44569M12.2987 35C4.12708 35 -1.84463 28.9441 3.18412 21.566C1.92693 15.3176 2.55553 15.0052 3.81259 10.9437C-2.47337 3.44566 2.86977 -0.303333 9.15564 3.44568C12.8777 1.87932 15.77 1.05241 18.5845 1.00241C21.5326 0.950036 24.3955 1.75011 28.0372 3.44569M27.7232 3.30086L28.0372 3.44569" stroke="black" stroke-width="2.5"/>
<path d="M11.2941 11.3912C8.96079 12.0126 10.7806 19.3387 13.1139 18.7172C15.4473 18.0958 13.6281 10.7695 11.2941 11.3912Z" fill="#232327"/>
<ellipse cx="18.5848" cy="23.4406" rx="2.20008" ry="1.87451" fill="black"/>
<path d="M25.1851 25.9837C27.6994 25.5463 33.6711 28.4831 33.9854 30.0452" stroke="black"/>
<path d="M11.0418 25.9837C8.52737 25.5463 2.87003 28.4831 2.55566 30.0452" stroke="black"/>
<path d="M31.7853 32.1706C28.0137 29.0464 26.7565 28.2966 25.1851 27.8143" stroke="black"/>
<path d="M11.0415 27.8143C9.46998 28.2966 8.84139 28.1092 5.06982 32.1706" stroke="black"/>
<path d="M9.51996 21.566C4.4912 28.7517 9.47016 32.8131 18.899 30.3138" stroke="black" stroke-width="1.5"/>
<path d="M18.8989 30.3138C28.3278 32.8131 33.1995 28.7517 28.1708 21.566" stroke="black" stroke-width="1.5"/>
<path d="M18.5845 30.6262C18.8561 29.9019 18.9842 30.0885 19.2131 30.6262" stroke="black"/>
<path d="M25.8303 11.4295C23.497 10.8081 21.388 18.0572 23.7213 18.6786C26.0546 19.3001 28.1643 12.0512 25.8303 11.4295Z" fill="#232327"/>
</g>
<defs>
<clipPath id="clip0_704_259">
<rect width="38" height="38" fill="white"/>
</clipPath>
</defs>
</svg>
