<svg width="39" height="38" viewBox="0 0 39 38" fill="none" xmlns="http://www.w3.org/2000/svg">
<g clip-path="url(#clip0_702_678)">
<path d="M24.4277 35C31.9709 35 39.1997 30.3137 34.1709 21.566C35.4281 15.3176 35.1138 14.6928 33.5422 10.9437C39.8283 3.44569 35.1138 -0.303341 28.5372 3.44569M12.7987 35C4.62708 35 -1.34463 28.9441 3.68412 21.566C2.42693 15.3176 3.05553 15.0052 4.31259 10.9437C-1.97337 3.44566 3.36977 -0.303333 9.65564 3.44568C13.3777 1.87932 16.27 1.05241 19.0845 1.00241C22.0326 0.950036 24.8955 1.75011 28.5372 3.44569M28.2232 3.30086L28.5372 3.44569" stroke="black" stroke-width="2.5"/>
<path d="M11.7939 11.3912C9.46054 12.0126 11.2804 19.3387 13.6137 18.7172C15.947 18.0958 14.1279 10.7695 11.7939 11.3912Z" fill="#232327"/>
<ellipse cx="19.0846" cy="23.4406" rx="2.20008" ry="1.87451" fill="black"/>
<path d="M25.6848 25.9837C28.1992 25.5463 34.1708 28.4831 34.4851 30.0452" stroke="black"/>
<path d="M11.5415 25.9837C9.02713 25.5463 3.36978 28.4831 3.05542 30.0452" stroke="black"/>
<path d="M32.2851 32.1706C28.5135 29.0464 27.2563 28.2966 25.6848 27.8143" stroke="black"/>
<path d="M11.5415 27.8143C9.96998 28.2966 9.34139 28.1092 5.56982 32.1706" stroke="black"/>
<path d="M10.02 21.566C4.9912 28.7517 9.97016 32.8131 19.399 30.3138" stroke="black" stroke-width="1.5"/>
<path d="M19.3989 30.3138C28.8278 32.8131 33.6995 28.7517 28.6708 21.566" stroke="black" stroke-width="1.5"/>
<path d="M19.0847 30.6262C19.3564 29.9019 19.4845 30.0885 19.7133 30.6262" stroke="black"/>
<path d="M26.3303 11.4295C23.997 10.8081 21.888 18.0572 24.2213 18.6786C26.5546 19.3001 28.6643 12.0512 26.3303 11.4295Z" fill="#232327"/>
</g>
<defs>
<clipPath id="clip0_702_678">
<rect width="38" height="38" fill="white" transform="translate(0.5)"/>
</clipPath>
</defs>
</svg>
