<svg width="39" height="39" viewBox="0 0 39 39" fill="none" xmlns="http://www.w3.org/2000/svg">
<g clip-path="url(#clip0_702_3054)">
<path d="M24.4277 35.6296C31.9709 35.6296 39.1997 30.9434 34.1709 22.1956C35.4281 15.9473 35.1138 15.3224 33.5422 11.5734C39.8283 4.07532 35.1138 0.326297 28.5372 4.07533M12.7987 35.6296C4.62708 35.6296 -1.34463 29.5737 3.68412 22.1956C2.42693 15.9473 3.05553 15.6348 4.31259 11.5734C-1.97337 4.0753 3.36977 0.326305 9.65564 4.07532C13.3777 2.50896 16.27 1.68205 19.0845 1.63205C22.0326 1.57967 24.8955 2.37975 28.5372 4.07533M28.2232 3.9305L28.5372 4.07533" stroke="black" stroke-width="2.5"/>
<path d="M11.7939 12.0208C9.46054 12.6423 11.2804 19.9684 13.6137 19.3469C15.947 18.7254 14.1279 11.3991 11.7939 12.0208Z" fill="#232327"/>
<ellipse cx="19.0846" cy="24.0702" rx="2.20008" ry="1.87451" fill="black"/>
<path d="M25.6848 26.6134C28.1992 26.176 34.1708 29.1127 34.4851 30.6748" stroke="black"/>
<path d="M11.5415 26.6134C9.02713 26.176 3.36978 29.1127 3.05542 30.6748" stroke="black"/>
<path d="M32.2851 32.8002C28.5135 29.6761 27.2563 28.9262 25.6848 28.444" stroke="black"/>
<path d="M11.5415 28.444C9.96998 28.9262 9.34139 28.7388 5.56982 32.8002" stroke="black"/>
<path d="M10.02 22.1957C4.9912 29.3813 9.97016 33.4428 19.399 30.9434" stroke="black" stroke-width="1.5"/>
<path d="M19.3989 30.9434C28.8278 33.4428 33.6995 29.3813 28.6708 22.1957" stroke="black" stroke-width="1.5"/>
<path d="M19.0847 31.2558C19.3564 30.5316 19.4845 30.7182 19.7133 31.2558" stroke="black"/>
<path d="M26.3303 12.0592C23.997 11.4377 21.888 18.6868 24.2213 19.3083C26.5546 19.9297 28.6643 12.6808 26.3303 12.0592Z" fill="#232327"/>
</g>
<defs>
<clipPath id="clip0_702_3054">
<rect width="38" height="38" fill="white" transform="translate(0.5 0.629639)"/>
</clipPath>
</defs>
</svg>
