<svg width="165" height="165" viewBox="0 0 165 165" fill="none" xmlns="http://www.w3.org/2000/svg">
<path d="M86.9701 42.9271L89.6214 65.8114C89.9918 69.0084 93.0161 71.2057 96.1712 70.5701L118.755 66.02C123.994 64.9643 126.377 72.2969 121.517 74.5226L100.572 84.1158C97.6463 85.456 96.4911 89.0113 98.0707 91.8155L109.377 111.888C112 116.545 105.762 121.076 102.144 117.143L86.548 100.187C84.3691 97.8185 80.6309 97.8185 78.452 100.187L62.856 117.143C59.2375 121.076 53.0001 116.545 55.6233 111.888L66.9293 91.8155C68.5089 89.0113 67.3537 85.456 64.4276 84.1158L43.4827 74.5226C38.6231 72.2969 41.0056 64.9643 46.2453 66.02L68.8288 70.5701C71.9839 71.2057 75.0082 69.0085 75.3786 65.8114L78.0299 42.9271C78.645 37.6177 86.355 37.6177 86.9701 42.9271Z" fill="#FFCC33" stroke="black"/>
<circle cx="82.6456" cy="94.2245" r="1.67105" transform="rotate(-143.038 82.6456 94.2245)" fill="#8D2EFF" stroke="black"/>
<path d="M83.9963 54.1974L85.4827 75.1396C85.5925 76.688 87.0721 77.763 88.5787 77.389L108.955 72.3311C110.763 71.8822 111.607 74.4774 109.88 75.1771L90.422 83.0622C88.9834 83.6451 88.4182 85.3845 89.2394 86.7017L100.346 104.518C101.332 106.099 99.1246 107.703 97.9255 106.277L84.4135 90.2079C83.4145 89.0199 81.5857 89.0199 80.5867 90.2079L67.0747 106.277C65.8756 107.703 63.6681 106.099 64.6537 104.518L75.7608 86.7017C76.582 85.3845 76.0168 83.6451 74.5782 83.0622L55.1203 75.1771C53.3936 74.4774 54.2368 71.8823 56.045 72.3311L76.4215 77.389C77.9281 77.763 79.4077 76.688 79.5176 75.1396L81.0039 54.1974C81.1358 52.339 83.8644 52.339 83.9963 54.1974Z" fill="#FBF8A4" stroke="black"/>
<circle cx="82.4998" cy="82.5003" r="3.11842" fill="#A8EEE4" stroke="black"/>
<circle cx="82.4997" cy="75.2628" r="1.67105" fill="#D9D9D9" stroke="black"/>
<circle cx="82.5001" cy="58.6183" r="0.947369" fill="#D9D9D9" stroke="black"/>
<circle cx="82.5001" cy="62.2364" r="0.947369" fill="#D9D9D9" stroke="black"/>
<circle cx="82.5001" cy="66.5792" r="0.947369" fill="#D9D9D9" stroke="black"/>
<circle cx="82.5001" cy="70.1974" r="0.947369" fill="#D9D9D9" stroke="black"/>
<circle cx="82.4997" cy="75.2628" r="1.67105" fill="#D9D9D9" stroke="black"/>
<circle cx="82.5001" cy="58.6183" r="0.947369" fill="#D9D9D9" stroke="black"/>
<circle cx="82.5001" cy="62.2364" r="0.947369" fill="#D9D9D9" stroke="black"/>
<circle cx="82.5001" cy="66.5792" r="0.947369" fill="#D9D9D9" stroke="black"/>
<circle cx="82.5001" cy="70.1974" r="0.947369" fill="#D9D9D9" stroke="black"/>
<circle cx="76.1814" cy="80.4461" r="1.67105" transform="rotate(-73.3959 76.1814 80.4461)" fill="#D9D9D9" stroke="black"/>
<circle cx="60.2313" cy="75.6897" r="0.947369" transform="rotate(-73.3959 60.2313 75.6897)" fill="#D9D9D9" stroke="black"/>
<circle cx="63.6986" cy="76.7238" r="0.947369" transform="rotate(-73.3959 63.6986 76.7238)" fill="#D9D9D9" stroke="black"/>
<circle cx="67.8587" cy="77.9641" r="0.947369" transform="rotate(-73.3959 67.8587 77.9641)" fill="#D9D9D9" stroke="black"/>
<circle cx="71.327" cy="78.9983" r="0.947369" transform="rotate(-73.3959 71.327 78.9983)" fill="#D9D9D9" stroke="black"/>
<circle cx="90.0404" cy="80.3806" r="1.67105" transform="rotate(70.835 90.0404 80.3806)" fill="#D9D9D9" stroke="black"/>
<circle cx="105.763" cy="74.9165" r="0.947369" transform="rotate(70.835 105.763 74.9165)" fill="#D9D9D9" stroke="black"/>
<circle cx="102.345" cy="76.104" r="0.947369" transform="rotate(70.835 102.345 76.104)" fill="#D9D9D9" stroke="black"/>
<circle cx="98.2433" cy="77.5298" r="0.947369" transform="rotate(70.835 98.2433 77.5298)" fill="#D9D9D9" stroke="black"/>
<circle cx="94.826" cy="78.7183" r="0.947369" transform="rotate(70.835 94.826 78.7183)" fill="#D9D9D9" stroke="black"/>
<circle cx="90.0404" cy="80.3806" r="1.67105" transform="rotate(70.835 90.0404 80.3806)" fill="#D9D9D9" stroke="black"/>
<circle cx="105.763" cy="74.9165" r="0.947369" transform="rotate(70.835 105.763 74.9165)" fill="#D9D9D9" stroke="black"/>
<circle cx="102.345" cy="76.104" r="0.947369" transform="rotate(70.835 102.345 76.104)" fill="#D9D9D9" stroke="black"/>
<circle cx="98.2433" cy="77.5298" r="0.947369" transform="rotate(70.835 98.2433 77.5298)" fill="#D9D9D9" stroke="black"/>
<circle cx="94.826" cy="78.7183" r="0.947369" transform="rotate(70.835 94.826 78.7183)" fill="#D9D9D9" stroke="black"/>
<circle cx="86.8236" cy="88.0062" r="1.67105" transform="rotate(143.85 86.8236 88.0062)" fill="#D9D9D9" stroke="black"/>
<circle cx="96.6415" cy="101.446" r="0.947369" transform="rotate(143.85 96.6415 101.446)" fill="#D9D9D9" stroke="black"/>
<circle cx="94.5073" cy="98.5249" r="0.947369" transform="rotate(143.85 94.5073 98.5249)" fill="#D9D9D9" stroke="black"/>
<circle cx="91.9462" cy="95.0181" r="0.947369" transform="rotate(143.85 91.9462 95.0181)" fill="#D9D9D9" stroke="black"/>
<circle cx="89.811" cy="92.0972" r="0.947369" transform="rotate(143.85 89.811 92.0972)" fill="#D9D9D9" stroke="black"/>
<circle cx="78.1762" cy="88.9921" r="1.67105" transform="rotate(-143.038 78.1762 88.9921)" fill="#D9D9D9" stroke="black"/>
<circle cx="66.7245" cy="84.0926" r="1.67105" transform="rotate(-143.038 66.7245 84.0926)" fill="#8D2EFF" stroke="black"/>
<circle cx="68.1713" cy="91.3299" r="1.67105" transform="rotate(-143.038 68.1713 91.3299)" fill="#8D2EFF" stroke="black"/>
<circle cx="98.3016" cy="83.4923" r="1.67105" transform="rotate(-113.038 98.3016 83.4923)" fill="#8D2EFF" stroke="black"/>
<circle cx="95.9366" cy="90.4826" r="1.67105" transform="rotate(-113.038 95.9366 90.4826)" fill="#8D2EFF" stroke="black"/>
<circle cx="94.7123" cy="72.4028" r="1.67105" transform="rotate(-8.03763 94.7123 72.4028)" fill="#8D2EFF" stroke="black"/>
<circle cx="88.5719" cy="68.3091" r="1.67105" transform="rotate(-8.03763 88.5719 68.3091)" fill="#8D2EFF" stroke="black"/>
<circle cx="69.8511" cy="71.8156" r="1.67105" transform="rotate(101.982 69.8511 71.8156)" fill="#8D2EFF" stroke="black"/>
<circle cx="75.8005" cy="67.4484" r="1.67105" transform="rotate(101.982 75.8005 67.4484)" fill="#8D2EFF" stroke="black"/>
<circle cx="68.1679" cy="102.292" r="0.947369" transform="rotate(-143.038 68.1679 102.292)" fill="#D9D9D9" stroke="black"/>
<circle cx="70.3432" cy="99.401" r="0.947369" transform="rotate(-143.038 70.3432 99.401)" fill="#D9D9D9" stroke="black"/>
<circle cx="72.9543" cy="95.9312" r="0.947369" transform="rotate(-143.038 72.9543 95.9312)" fill="#D9D9D9" stroke="black"/>
<circle cx="75.1303" cy="93.0396" r="0.947369" transform="rotate(-143.038 75.1303 93.0396)" fill="#D9D9D9" stroke="black"/>
</svg>
