<svg width="142" height="108" viewBox="0 0 142 108" fill="none" xmlns="http://www.w3.org/2000/svg">
<path d="M96.4485 47.3819L94.7617 48.1048L97.1714 48.5868L96.2075 50.9964L98.8581 50.2735L98.1352 53.4061L100.786 52.2013V56.0567H103.436C103.758 56.5386 105.268 56.6832 108.738 53.4061C113.075 49.3097 109.701 51.7193 113.557 48.1048C116.641 45.2131 114.842 43.6871 113.557 43.2856L112.593 41.8398H110.906V39.1892L108.738 40.1531V37.9844L106.328 38.4663L103.436 40.1531L102.473 39.1892L101.268 42.8037L99.0991 40.6349C98.9063 40.4421 99.1794 43.2855 99.34 44.7313L97.6533 45.6951L96.4485 44.7313V47.3819Z" fill="#EA5D21" stroke="black"/>
<path d="M106.81 38.4655L105.123 34.6101C103.919 33.3249 103.05 29.8852 109.22 26.4171C109.943 26.0108 111.87 25.9354 111.87 28.104C112.593 30.0318 115.967 36.2969 115.967 37.5015C115.967 39.0508 115.863 40.0166 115.748 40.5856C115.81 40.52 115.882 40.455 115.967 40.3931C116.208 41.7585 116.256 44.2967 114.521 43.5256C112.786 42.7545 112.513 41.9192 112.593 41.5979H110.906V39.4292L108.497 40.3931V37.9834L106.81 38.4655Z" fill="#EA5D21"/>
<path d="M106.81 38.4655L105.123 34.6101C103.919 33.3249 103.05 29.8852 109.22 26.4171C109.943 26.0108 111.87 25.9354 111.87 28.104C112.593 30.0318 115.967 36.2969 115.967 37.5015C115.967 42.7948 114.762 41.2766 115.967 40.3931C116.208 41.7585 116.256 44.2967 114.521 43.5256C112.786 42.7545 112.513 41.9192 112.593 41.5979H110.906V39.4292L108.497 40.3931V37.9834L106.81 38.4655Z" stroke="black"/>
<path d="M89.4604 28.8273C90.4243 34.0322 99.6612 33.8876 104.159 33.1647C104.159 29.3091 107.854 27.0603 109.701 26.4179C110.264 27.221 110.569 27.4779 107.292 22.0803C103.195 15.3334 94.0388 13.6466 92.593 14.3695C91.4364 14.9478 91.3078 18.7872 91.3881 20.6346C90.3439 21.1968 88.4965 23.6225 89.4604 28.8273Z" fill="#EA5D21" stroke="black"/>
<path d="M72.3518 19.6709C72.5446 19.0926 84.0787 25.5343 89.4603 28.8275C88.4964 22.5624 90.9061 21.3576 91.388 20.6347C91.7088 20.1535 91.4683 17.1006 91.8699 15.3335C92.1438 14.1284 91.629 13.8875 90.4241 13.4058C84.3996 10.9973 80.3037 10.0321 77.412 10.7553C73.8361 11.6496 63.918 17.7434 73.3157 14.6109C82.7133 11.4783 85.6048 17.7434 85.1229 19.6709C84.6409 21.5984 76.2073 17.7434 73.3157 17.7434C70.4241 17.7434 72.1109 20.3938 72.3518 19.6709Z" fill="#EA5D21" stroke="black"/>
<path d="M37.6529 78.7068C47.4842 79.0923 53.9581 78.0642 55.9661 77.502L60.5444 80.3935C56.689 81.8393 48.2553 84.7309 45.3637 84.7309C41.7492 84.7309 39.5806 82.8032 38.3757 82.5622C37.1709 82.3212 36.93 82.8032 36.2071 84.7309C35.0504 86.273 32.5123 86.6586 31.3878 86.6586C29.3798 83.8473 27.8215 78.3212 37.6529 78.7068Z" fill="#EA5D21" stroke="black"/>
<path d="M36.2072 95.5726C33.3157 98.9461 27.1952 104.006 25.8458 97.2593C24.4964 90.5123 28.9783 87.3798 31.388 86.6569C33.7976 86.4176 35.4844 85.2917 35.2434 85.6931C33.379 88.7982 35.2434 93.6449 36.2072 95.5726Z" fill="#EA5D21" stroke="black"/>
<path d="M32.5939 105.935C28.6588 104.587 25.1239 99.8372 27.5334 100.393C29.9429 100.949 32.112 99.4293 32.112 99.4293C32.112 99.4293 36.4489 94.8507 37.1722 95.8148C39.1705 98.4782 43.4373 101.598 43.4373 101.598C43.4373 101.598 41.1481 105.027 38.859 105.935C36.5849 106.838 34.9085 106.728 32.5939 105.935Z" fill="#EA5D21"/>
<path d="M56.6899 40.6338C57.461 42.3688 58.457 42.8025 58.8586 42.8025C59.0192 42.8025 59.6778 42.6579 61.0272 42.0797C62.3766 41.5015 60.1437 40.3929 58.8586 39.9109C57.8144 39.429 55.9188 38.8989 56.6899 40.6338Z" fill="#EA5D21"/>
<path d="M32.5939 105.935C28.6588 104.587 25.1239 99.8372 27.5334 100.393C29.9429 100.949 32.112 99.4293 32.112 99.4293C32.112 99.4293 36.4489 94.8507 37.1722 95.8148C39.1705 98.4782 43.4373 101.598 43.4373 101.598C43.4373 101.598 41.1481 105.027 38.859 105.935C36.5849 106.838 34.9085 106.728 32.5939 105.935Z" stroke="black"/>
<path d="M56.6899 40.6338C57.461 42.3688 58.457 42.8025 58.8586 42.8025C59.0192 42.8025 59.6778 42.6579 61.0272 42.0797C62.3766 41.5015 60.1437 40.3929 58.8586 39.9109C57.8144 39.429 55.9188 38.8989 56.6899 40.6338Z" stroke="black"/>
<path d="M57.1152 41.6372L59.2839 40.4324C58.8823 40.1111 57.8863 39.5167 57.1152 39.7095C56.3441 39.9023 56.7939 41.075 57.1152 41.6372Z" fill="#EA5D21" stroke="black"/>
<path d="M26.3276 69.791L49.2192 73.1645L54.5204 76.538C54.1991 76.8593 52.6891 77.5019 49.2192 77.5019C45.7493 77.5019 33.4762 75.8954 27.7734 75.0922C26.9702 75.2529 25.5565 75.3332 26.3276 74.3693C27.0987 73.4055 25.685 71.2368 24.8818 70.2729L26.3276 69.791Z" fill="#EA5D21" stroke="black"/>
<path d="M6.81014 83.2845C6.4246 80.0074 18.6977 73.2444 24.8824 70.2725C25.6053 70.2725 27.774 74.6098 25.6053 74.6098C17.2964 74.6098 10.1836 84.4893 9.70166 85.4532C9.31612 86.2243 8.09524 86.5777 7.53299 86.658C7.45268 86.899 7.19569 86.5616 6.81014 83.2845Z" fill="#EA5D21" stroke="black"/>
<path d="M10.424 95.0924C8.30355 94.5141 7.13086 86.9799 6.80957 83.2852L7.53246 86.6587L9.46017 85.9358C10.665 89.2289 12.5445 95.6707 10.424 95.0924Z" fill="#EA5D21" stroke="black"/>
<path d="M39.8221 11.2363C37.8944 10.902 29.782 22.8812 28.7378 28.1021C29.3161 29.8371 33.3161 30.2708 35.2438 30.2707C35.0832 30.592 38.9554 31.4629 40.545 30.2707C43.4366 28.1021 46.1675 26.4153 48.4968 22.5599C48.6575 22.159 48.6414 20.5379 47.292 17.2607C45.9426 13.9836 42.7137 12.1283 41.2679 11.6103C41.2679 11.6103 40.3342 11.3251 39.8221 11.2363Z" fill="#EA5D21" stroke="black"/>
<path d="M46.5691 45.6952L48.4968 47.6229L46.5691 47.141L45.8462 49.0687H42.7137V52.2013L41.2679 51.7193V56.0567H39.3402C39.1795 56.2976 38.4727 56.635 36.9306 56.0567C35.0028 55.3338 28.9787 48.3458 28.2558 47.6229C27.6775 47.0446 28.0149 45.7756 28.2558 45.2133L36.4486 38.9482L38.8583 40.876L39.8221 38.9482L41.9908 42.3217L43.4366 40.394L43.9185 43.5266L45.3643 45.2133L46.5691 43.5266V45.6952Z" fill="#EA5D21" stroke="black"/>
<path d="M34.5206 36.7799C33.5567 38.1293 34.6009 39.4305 35.2435 39.9125L28.4966 44.7317C27.9343 43.9285 26.5688 41.5028 25.605 38.2257C24.6411 34.9485 26.0066 31.559 26.8098 30.2739C27.2917 29.1494 28.4483 27.2378 29.2194 28.5872C29.9905 29.9366 33.5567 30.2739 35.2435 30.2739C35.4041 31.8803 35.4844 35.4305 34.5206 36.7799Z" fill="#EA5D21" stroke="black"/>
<path d="M62.4723 81.1171H72.3519C75.0025 81.1171 78.376 81.1168 81.5085 80.635C83.6641 80.3035 95.2435 70.9965 103.195 65.4543L101.268 62.8037L103.677 60.635L101.268 59.1892L103.677 56.0567H100.786V52.2013L98.135 53.1651L98.8579 50.2736L96.2073 50.9965L97.1712 48.5868L94.5206 48.1049L93.7977 45.9362L90.9061 46.4181V44.7314H88.7375L87.5326 41.8398L85.6049 43.7675L79.8218 42.3217L78.617 40.876L76.9302 43.2856L76.2073 40.394L74.0386 41.8398L72.8338 39.9121L70.6651 41.8398L69.7013 39.9121L67.7736 41.8398L66.0868 40.394L64.882 41.8398L63.6772 40.394L62.4723 41.8398L56.4483 43.7675L55.0025 41.8398L54.0386 45.4543L51.629 43.2856L50.6651 46.1772L48.4965 45.4543V47.623L46.8097 46.9001L45.8459 49.0687H42.9543V52.2013L41.2675 51.7193V55.8157H39.3398L39.8218 59.9121L37.894 60.876L39.8218 63.0447V64.4904L38.6169 64.0087C38.2956 63.6071 37.9904 63.4303 39.3398 65.9364C40.6892 68.4424 55.3237 77.101 62.4723 81.1171Z" fill="#EA5D21" stroke="black"/>
<path d="M60.5449 1.35773C53.9907 -0.762751 43.8381 7.06055 39.5811 11.2373C50.1835 13.6469 48.0148 24.7312 48.7377 22.5625C49.316 20.8276 57.9746 13.0043 62.2317 9.30949C62.6333 8.82756 63.4365 7.52636 63.4365 6.17696C58.5369 8.74724 48.5931 13.5987 48.0148 12.442C47.2919 10.9962 47.9633 10.3842 50.6654 7.38178C52.8341 4.97214 55.806 3.52636 58.3762 3.28539C61.8301 3.52637 67.0991 3.47822 60.5449 1.35773Z" fill="#EA5D21" stroke="black"/>
<path d="M26.3279 54.61C27.099 56.1522 35.4845 58.1442 39.5809 58.9474L39.8219 60.1522L37.6532 60.8751L39.5809 63.2847C35.1633 61.6783 25.8942 58.5618 24.1592 58.9474C21.9906 59.4293 25.364 52.6823 26.3279 54.61Z" fill="#EA5D21" stroke="black"/>
<path d="M11.6291 37.9841C11.2436 39.3335 20.9464 49.4701 25.846 54.3697C25.28 53.8038 23.8989 55.9606 23.2378 57.1823C24.32 57.7499 23.799 57.5355 23.1954 57.2612C23.2092 57.2354 23.2233 57.209 23.2378 57.1823C22.7358 56.919 21.8887 56.4874 20.5448 55.8154C15.2437 53.1648 10.6653 41.3576 9.94237 40.3937C9.21948 39.4299 12.111 36.2974 11.6291 37.9841Z" fill="#EA5D21"/>
<path d="M25.846 54.3697C20.9464 49.4701 11.2436 39.3335 11.6291 37.9841C12.111 36.2974 9.21948 39.4299 9.94237 40.3937C10.6653 41.3576 15.2437 53.1648 20.5448 55.8154C24.7857 57.9359 24.0789 57.6628 23.1954 57.2612C23.838 56.0564 25.2676 53.7914 25.846 54.3697Z" stroke="black"/>
<path d="M6.81022 29.0674C4.11591 29.0623 8.41665 37.1798 9.70179 39.9108C10.1837 38.7063 11.0222 38.2531 11.1476 37.5011C11.3886 36.0565 7.05109 29.0678 6.81022 29.0674Z" fill="#EA5D21" stroke="black"/>
<path d="M28.9785 61.8389L39.3399 65.6943C39.3399 66.6581 43.5167 69.7907 45.6051 71.2365L28.9785 67.1401C28.6572 66.9794 28.2074 66.4654 28.9785 65.6943C29.7496 64.9232 29.2998 62.8027 28.9785 61.8389Z" fill="#EA5D21" stroke="black"/>
<path d="M17.171 59.4297C17.5726 59.4297 20.4481 59.9598 28.7373 62.0803C30.424 63.767 28.7373 66.1767 28.2553 66.6586C27.8697 67.0441 22.6328 65.3735 20.0625 64.4899C19.9019 64.008 18.9059 62.8514 16.2071 62.0803C13.5083 61.3092 15.7252 59.9919 17.171 59.4297Z" fill="#EA5D21" stroke="black"/>
<path d="M3.918 61.8387C-0.711639 68.5835 1.18707 72.3608 2.71318 73.4049C1.74932 71.477 4.39991 66.3366 5.84569 64.0073C7.13084 60.4732 4.57893 60.8758 3.918 61.8387Z" fill="#EA5D21" stroke="black"/>
<path d="M16.2075 59.9121C16.1178 59.9218 16.0251 59.9318 15.9295 59.9422C14.8001 60.2028 15.0867 62.064 16.2075 61.8398C17.1714 61.6471 18.6975 63.2053 19.3401 64.0085C16.1272 63.9282 9.02682 63.8157 6.32802 64.0085C2.95452 64.2495 3.43645 61.3579 5.36417 61.1169C6.85978 60.93 12.8579 60.2746 15.9295 59.9422C16.0141 59.9227 16.1067 59.9121 16.2075 59.9121Z" fill="#EA5D21"/>
<path d="M16.2075 59.9121C13.2357 60.2334 6.90633 60.9242 5.36417 61.1169C3.43645 61.3579 2.95452 64.2495 6.32802 64.0085C9.02682 63.8157 16.1272 63.9282 19.3401 64.0085C18.6975 63.2053 17.1714 61.6471 16.2075 61.8398C15.0027 62.0808 14.7618 59.9121 16.2075 59.9121Z" stroke="black"/>
<path d="M104.096 78.7186C94.2648 79.1041 88.577 78.0652 86.569 77.5029L82.7136 80.1531C86.569 81.5988 93.4938 84.7427 96.3853 84.7427C99.9998 84.7427 102.168 82.815 103.373 82.574C104.578 82.333 104.819 82.815 105.542 84.7427C106.699 86.2848 109.237 86.6704 110.361 86.6704C112.369 83.8591 113.927 78.333 104.096 78.7186Z" fill="#EA5D21" stroke="black"/>
<path d="M105.542 95.5736C108.434 98.947 114.554 104.007 115.904 97.2603C117.253 90.5133 112.771 87.3808 110.362 86.6579C107.952 86.4185 106.265 85.2927 106.506 85.694C108.371 88.7991 106.506 93.6458 105.542 95.5736Z" fill="#EA5D21" stroke="black"/>
<path d="M109.156 105.936C113.091 104.588 116.626 99.8382 114.216 100.394C111.807 100.95 109.638 99.4302 109.638 99.4302C109.638 99.4302 105.301 94.8517 104.577 95.8158C102.579 98.4791 98.3122 101.599 98.3122 101.599C98.3122 101.599 100.601 105.028 102.891 105.936C105.165 106.839 106.841 106.729 109.156 105.936Z" fill="#EA5D21"/>
<path d="M85.0596 40.6348C84.2885 42.3697 83.2926 42.8035 82.8909 42.8035C82.7303 42.8035 82.3758 43.1404 81.0264 42.5621C79.677 41.9839 81.6058 40.3939 82.8909 39.9119C83.9351 39.43 85.8307 38.8999 85.0596 40.6348Z" fill="#EA5D21"/>
<path d="M109.156 105.936C113.091 104.588 116.626 99.8382 114.216 100.394C111.807 100.95 109.638 99.4302 109.638 99.4302C109.638 99.4302 105.301 94.8517 104.577 95.8158C102.579 98.4791 98.3122 101.599 98.3122 101.599C98.3122 101.599 100.601 105.028 102.891 105.936C105.165 106.839 106.841 106.729 109.156 105.936Z" stroke="black"/>
<path d="M85.0596 40.6348C84.2885 42.3697 83.2926 42.8035 82.8909 42.8035C82.7303 42.8035 82.3758 43.1404 81.0264 42.5621C79.677 41.9839 81.6058 40.3939 82.8909 39.9119C83.9351 39.43 85.8307 38.8999 85.0596 40.6348Z" stroke="black"/>
<path d="M84.1082 41.5996L81.7495 40.7428C84.537 39.0293 84.3226 39.8861 84.9659 39.8861C85.4805 39.8861 84.6085 41.0284 84.1082 41.5996Z" fill="#EA5D21" stroke="black"/>
<path d="M115.421 69.792L92.593 73.165L88.2557 76.2975C88.5769 76.6188 89.0599 77.5028 92.5298 77.5028C95.9997 77.5028 108.273 75.8964 113.976 75.0932C114.779 75.2538 116.192 75.3342 115.421 74.3703C114.65 73.4065 116.064 71.2378 116.867 70.2739L115.421 69.792Z" fill="#EA5D21" stroke="black"/>
<path d="M134.939 83.2855C135.325 80.0084 123.052 73.2453 116.867 70.2734C116.144 70.2734 113.976 74.6108 116.144 74.6108C124.453 74.6108 131.566 84.4903 132.048 85.4542C132.433 86.2253 133.654 86.5787 134.217 86.659C134.297 86.9 134.554 86.5626 134.939 83.2855Z" fill="#EA5D21" stroke="black"/>
<path d="M131.325 95.0934C133.446 94.5151 134.619 86.9809 134.94 83.2861L134.217 86.6596L132.289 85.9367C131.085 89.2299 129.205 95.6717 131.325 95.0934Z" fill="#EA5D21" stroke="black"/>
<path d="M115.421 54.61C114.65 56.1522 106.264 57.1798 102.168 57.983L101.267 59.1879L103.677 60.6337L101.267 62.8023C105.685 61.1959 115.855 58.5618 117.59 58.9474C119.758 59.4293 116.385 52.6823 115.421 54.61Z" fill="#EA5D21" stroke="black"/>
<path d="M130.12 37.9841C130.506 39.3335 120.803 49.4701 115.904 54.3697C116.469 53.8038 117.851 55.9606 118.512 57.1823C117.429 57.7499 117.951 57.5355 118.554 57.2612C118.54 57.2354 118.526 57.209 118.512 57.1823C119.014 56.919 119.861 56.4874 121.205 55.8154C126.506 53.1648 131.084 41.3576 131.807 40.3937C132.53 39.4299 129.638 36.2974 130.12 37.9841Z" fill="#EA5D21"/>
<path d="M115.904 54.3697C120.803 49.4701 130.506 39.3335 130.12 37.9841C129.638 36.2974 132.53 39.4299 131.807 40.3937C131.084 41.3576 126.506 53.1648 121.205 55.8154C116.964 57.9359 117.671 57.6628 118.554 57.2612C117.912 56.0564 116.482 53.7914 115.904 54.3697Z" stroke="black"/>
<path d="M134.939 29.0684C137.634 29.0633 133.333 37.1808 132.048 39.9117C131.566 38.7073 130.727 38.254 130.602 37.5021C130.361 36.0574 134.698 29.0688 134.939 29.0684Z" fill="#EA5D21" stroke="black"/>
<path d="M112.771 61.8398L103.195 65.4538C101.99 66.4177 98.0546 69.3093 95.9662 70.755L112.771 67.1411C113.092 66.9804 113.542 66.4664 112.771 65.6953C111.999 64.9242 112.449 62.8037 112.771 61.8398Z" fill="#EA5D21" stroke="black"/>
<path d="M124.578 59.4307C124.176 59.4307 121.301 59.9608 113.012 62.0813C111.325 63.768 113.012 66.1777 113.494 66.6596C113.879 67.0451 119.116 65.3744 121.687 64.4909C121.847 64.009 122.843 62.8524 125.542 62.0813C128.241 61.3102 126.024 59.9929 124.578 59.4307Z" fill="#EA5D21" stroke="black"/>
<path d="M137.831 61.8396C142.461 68.5845 140.562 72.3617 139.036 73.4059C140 71.478 137.349 66.3376 135.903 64.0083C134.618 60.4742 137.17 60.8767 137.831 61.8396Z" fill="#EA5D21" stroke="black"/>
<path d="M125.542 59.9121C125.632 59.9218 125.724 59.9318 125.82 59.9422C126.949 60.2028 126.663 62.064 125.542 61.8398C124.578 61.6471 123.052 63.2053 122.409 64.0085C125.622 63.9282 132.723 63.8157 135.421 64.0085C138.795 64.2495 138.313 61.3579 136.385 61.1169C134.89 60.93 128.892 60.2746 125.82 59.9422C125.735 59.9227 125.643 59.9121 125.542 59.9121Z" fill="#EA5D21"/>
<path d="M125.542 59.9121C128.514 60.2334 134.843 60.9242 136.385 61.1169C138.313 61.3579 138.795 64.2495 135.421 64.0085C132.723 63.8157 125.622 63.9282 122.409 64.0085C123.052 63.2053 124.578 61.6471 125.542 61.8398C126.747 62.0808 126.988 59.9121 125.542 59.9121Z" stroke="black"/>
</svg>
