<svg width="142" height="108" viewBox="0 0 142 108" fill="none" xmlns="http://www.w3.org/2000/svg">
<path d="M96.4485 47.3819L94.7617 48.1048L97.1714 48.5868L96.2075 50.9964L98.8581 50.2735L98.1352 53.4061L100.786 52.2013V56.0567H103.436C103.758 56.5386 105.268 56.6832 108.738 53.4061C113.075 49.3097 109.701 51.7193 113.557 48.1048C116.641 45.2131 114.842 43.6871 113.557 43.2856L112.593 41.8398H110.906V39.1892L108.738 40.1531V37.9844L106.328 38.4663L103.436 40.1531L102.473 39.1892L101.268 42.8037L99.0991 40.6349C98.9063 40.4421 99.1794 43.2855 99.34 44.7313L97.6533 45.6951L96.4485 44.7313V47.3819Z" fill="#EA5D21" stroke="black"/>
<path d="M106.81 38.4655L105.123 34.6101C103.918 33.3249 103.049 29.8852 109.219 26.4171C109.942 26.0108 111.87 25.9354 111.87 28.104C112.593 30.0318 115.966 36.2969 115.966 37.5015C115.966 39.0508 115.863 40.0166 115.747 40.5856C115.809 40.52 115.882 40.455 115.966 40.3931C116.207 41.7585 116.255 44.2967 114.52 43.5256C112.785 42.7545 112.512 41.9192 112.593 41.5979H110.906V39.4292L108.496 40.3931V37.9834L106.81 38.4655Z" fill="#EA5D21"/>
<path d="M106.81 38.4655L105.123 34.6101C103.918 33.3249 103.049 29.8852 109.219 26.4171C109.942 26.0108 111.87 25.9354 111.87 28.104C112.593 30.0318 115.966 36.2969 115.966 37.5015C115.966 42.7948 114.761 41.2766 115.966 40.3931C116.207 41.7585 116.255 44.2967 114.52 43.5256C112.785 42.7545 112.512 41.9192 112.593 41.5979H110.906V39.4292L108.496 40.3931V37.9834L106.81 38.4655Z" stroke="black"/>
<path d="M89.4604 28.8273C90.4243 34.0322 99.6612 33.8876 104.159 33.1647C104.159 29.3091 107.854 27.0603 109.701 26.4179C110.264 27.221 110.569 27.4779 107.292 22.0803C103.195 15.3334 94.0388 13.6466 92.593 14.3695C91.4364 14.9478 91.3078 18.7872 91.3881 20.6346C90.3439 21.1968 88.4965 23.6225 89.4604 28.8273Z" fill="#EA5D21" stroke="black"/>
<path d="M72.3521 19.6709C72.5449 19.0926 84.079 25.5343 89.4605 28.8275C88.4967 22.5624 90.9063 21.3576 91.3882 20.6347C91.709 20.1535 91.4686 17.1006 91.8702 15.3335C92.144 14.1284 91.6293 13.8875 90.4244 13.4058C84.3998 10.9973 80.304 10.0321 77.4123 10.7553C73.8364 11.6496 63.9183 17.7434 73.3159 14.6109C82.7136 11.4783 85.605 17.7434 85.1231 19.6709C84.6412 21.5984 76.2075 17.7434 73.3159 17.7434C70.4244 17.7434 72.1111 20.3938 72.3521 19.6709Z" fill="#EA5D21" stroke="black"/>
<path d="M37.6534 78.7068C47.4847 79.0923 53.9586 78.0642 55.9666 77.502L60.5449 80.3935C56.6895 81.8393 48.2557 84.7309 45.3642 84.7309C41.7497 84.7309 39.581 82.8032 38.3762 82.5622C37.1714 82.3212 36.9304 82.8032 36.2075 84.7309C35.0509 86.273 32.5128 86.6586 31.3883 86.6586C29.3803 83.8473 27.822 78.3212 37.6534 78.7068Z" fill="#EA5D21" stroke="black"/>
<path d="M36.2072 95.5726C33.3157 98.9461 27.1952 104.006 25.8458 97.2593C24.4964 90.5123 28.9783 87.3798 31.388 86.6569C33.7976 86.4176 35.4844 85.2917 35.2434 85.6931C33.379 88.7982 35.2434 93.6449 36.2072 95.5726Z" fill="#EA5D21" stroke="black"/>
<path d="M32.5934 105.935C28.6583 104.587 25.1234 99.8372 27.5329 100.393C29.9424 100.949 32.1115 99.4293 32.1115 99.4293C32.1115 99.4293 36.4484 94.8507 37.1718 95.8148C39.17 98.4782 43.4368 101.598 43.4368 101.598C43.4368 101.598 41.1476 105.027 38.8585 105.935C36.5844 106.838 34.908 106.728 32.5934 105.935Z" fill="#EA5D21"/>
<path d="M56.6894 40.6338C57.4605 42.3688 58.4565 42.8025 58.8581 42.8025C59.0187 42.8025 59.6774 42.6579 61.0268 42.0797C62.3762 41.5015 60.1432 40.3929 58.8581 39.9109C57.8139 39.429 55.9183 38.8989 56.6894 40.6338Z" fill="#EA5D21"/>
<path d="M32.5934 105.935C28.6583 104.587 25.1234 99.8372 27.5329 100.393C29.9424 100.949 32.1115 99.4293 32.1115 99.4293C32.1115 99.4293 36.4484 94.8507 37.1718 95.8148C39.17 98.4782 43.4368 101.598 43.4368 101.598C43.4368 101.598 41.1476 105.027 38.8585 105.935C36.5844 106.838 34.908 106.728 32.5934 105.935Z" stroke="black"/>
<path d="M56.6894 40.6338C57.4605 42.3688 58.4565 42.8025 58.8581 42.8025C59.0187 42.8025 59.6774 42.6579 61.0268 42.0797C62.3762 41.5015 60.1432 40.3929 58.8581 39.9109C57.8139 39.429 55.9183 38.8989 56.6894 40.6338Z" stroke="black"/>
<path d="M57.115 41.6372L59.2836 40.4324C58.882 40.1111 57.886 39.5167 57.115 39.7095C56.3439 39.9023 56.7937 41.075 57.115 41.6372Z" fill="#EA5D21" stroke="black"/>
<path d="M26.3279 69.791L49.2194 73.1645L54.5207 76.538C54.1994 76.8593 52.6893 77.5019 49.2194 77.5019C45.7496 77.5019 33.4765 75.8954 27.7736 75.0922C26.9704 75.2529 25.5568 75.3332 26.3279 74.3693C27.0989 73.4055 25.6853 71.2368 24.8821 70.2729L26.3279 69.791Z" fill="#EA5D21" stroke="black"/>
<path d="M6.8099 83.2845C6.42436 80.0074 18.6975 73.2444 24.8822 70.2725C25.605 70.2725 27.7737 74.6098 25.605 74.6098C17.2961 74.6098 10.1833 84.4893 9.70142 85.4532C9.31588 86.2243 8.09499 86.5777 7.53274 86.658C7.45244 86.899 7.19544 86.5616 6.8099 83.2845Z" fill="#EA5D21" stroke="black"/>
<path d="M10.4243 95.0924C8.30379 94.5141 7.1311 86.9799 6.80981 83.2852L7.53271 86.6587L9.46042 85.9358C10.6652 89.2289 12.5448 95.6707 10.4243 95.0924Z" fill="#EA5D21" stroke="black"/>
<path d="M39.8219 11.2363C37.8942 10.902 29.7817 22.8812 28.7375 28.1021C29.3159 29.8371 33.3159 30.2708 35.2436 30.2707C35.0829 30.592 38.9551 31.4629 40.5448 30.2707C43.4364 28.1021 46.1673 26.4153 48.4966 22.5599C48.6572 22.159 48.6412 20.5379 47.2918 17.2607C45.9424 13.9836 42.7135 12.1283 41.2677 11.6103C41.2677 11.6103 40.3339 11.3251 39.8219 11.2363Z" fill="#EA5D21" stroke="black"/>
<path d="M46.5689 45.6952L48.4966 47.6229L46.5689 47.141L45.846 49.0687H42.7134V52.2013L41.2677 51.7193V56.0567H39.3399C39.1793 56.2976 38.4725 56.635 36.9303 56.0567C35.0026 55.3338 28.9785 48.3458 28.2556 47.6229C27.6773 47.0446 28.0146 45.7756 28.2556 45.2133L36.4484 38.9482L38.858 40.876L39.8219 38.9482L41.9905 42.3217L43.4363 40.394L43.9183 43.5266L45.364 45.2133L46.5689 43.5266V45.6952Z" fill="#EA5D21" stroke="black"/>
<path d="M34.5208 36.7799C33.557 38.1293 34.6011 39.4305 35.2437 39.9125L28.4968 44.7317C27.9345 43.9285 26.5691 41.5028 25.6052 38.2257C24.6413 34.9485 26.0068 31.559 26.81 30.2739C27.2919 29.1494 28.4486 27.2378 29.2197 28.5872C29.9907 29.9366 33.557 30.2739 35.2437 30.2739C35.4044 31.8803 35.4847 35.4305 34.5208 36.7799Z" fill="#EA5D21" stroke="black"/>
<path d="M62.4726 81.1171H72.3521C75.0027 81.1171 78.3762 81.1168 81.5088 80.635C83.6643 80.3035 95.2437 70.9965 103.196 65.4543L101.268 62.8037L103.677 60.635L101.268 59.1892L103.677 56.0567H100.786V52.2013L98.1353 53.1651L98.8582 50.2736L96.2076 50.9965L97.1714 48.5868L94.5208 48.1049L93.7979 45.9362L90.9064 46.4181V44.7314H88.7377L87.5329 41.8398L85.6052 43.7675L79.822 42.3217L78.6172 40.876L76.9305 43.2856L76.2076 40.394L74.0389 41.8398L72.8341 39.9121L70.6654 41.8398L69.7015 39.9121L67.7738 41.8398L66.0871 40.394L64.8823 41.8398L63.6774 40.394L62.4726 41.8398L56.4485 43.7675L55.0027 41.8398L54.0389 45.4543L51.6292 43.2856L50.6654 46.1772L48.4967 45.4543V47.623L46.81 46.9001L45.8461 49.0687H42.9545V52.2013L41.2678 51.7193V55.8157H39.34L39.822 59.9121L37.8943 60.876L39.822 63.0447V64.4904L38.6172 64.0087C38.2959 63.6071 37.9906 63.4303 39.34 65.9364C40.6894 68.4424 55.324 77.101 62.4726 81.1171Z" fill="#EA5D21" stroke="black"/>
<path d="M60.5449 1.35773C53.9907 -0.762751 43.8381 7.06055 39.5811 11.2373C50.1835 13.6469 48.0148 24.7312 48.7377 22.5625C49.316 20.8276 57.9746 13.0043 62.2317 9.30949C62.6333 8.82756 63.4365 7.52636 63.4365 6.17696C58.5369 8.74724 48.5931 13.5987 48.0148 12.442C47.2919 10.9962 47.9633 10.3842 50.6654 7.38178C52.8341 4.97214 55.806 3.52636 58.3762 3.28539C61.8301 3.52637 67.0991 3.47822 60.5449 1.35773Z" fill="#EA5D21" stroke="black"/>
<path d="M26.3279 54.61C27.099 56.1522 35.4845 58.1442 39.5809 58.9474L39.8219 60.1522L37.6532 60.8751L39.5809 63.2847C35.1633 61.6783 25.8942 58.5618 24.1592 58.9474C21.9906 59.4293 25.364 52.6823 26.3279 54.61Z" fill="#EA5D21" stroke="black"/>
<path d="M11.6291 37.9841C11.2436 39.3335 20.9464 49.4701 25.846 54.3697C25.28 53.8038 23.8989 55.9606 23.2378 57.1823C24.32 57.7499 23.799 57.5355 23.1954 57.2612C23.2092 57.2354 23.2233 57.209 23.2378 57.1823C22.7358 56.919 21.8887 56.4874 20.5448 55.8154C15.2437 53.1648 10.6653 41.3576 9.94237 40.3937C9.21948 39.4299 12.111 36.2974 11.6291 37.9841Z" fill="#EA5D21"/>
<path d="M25.846 54.3697C20.9464 49.4701 11.2436 39.3335 11.6291 37.9841C12.111 36.2974 9.21948 39.4299 9.94237 40.3937C10.6653 41.3576 15.2437 53.1648 20.5448 55.8154C24.7857 57.9359 24.0789 57.6628 23.1954 57.2612C23.838 56.0564 25.2676 53.7914 25.846 54.3697Z" stroke="black"/>
<path d="M6.80973 29.0674C4.11542 29.0623 8.41616 37.1798 9.7013 39.9108C10.1833 38.7063 11.0217 38.2531 11.1471 37.5011C11.3881 36.0565 7.0506 29.0678 6.80973 29.0674Z" fill="#EA5D21" stroke="black"/>
<path d="M28.9785 61.8389L39.3399 65.6943C39.3399 66.6581 43.5167 69.7907 45.6051 71.2365L28.9785 67.1401C28.6572 66.9794 28.2074 66.4654 28.9785 65.6943C29.7496 64.9232 29.2998 62.8027 28.9785 61.8389Z" fill="#EA5D21" stroke="black"/>
<path d="M17.1715 59.4297C17.5731 59.4297 20.4486 59.9598 28.7377 62.0803C30.4245 63.767 28.7377 66.1767 28.2558 66.6586C27.8702 67.0441 22.6333 65.3735 20.063 64.4899C19.9024 64.008 18.9064 62.8514 16.2076 62.0803C13.5088 61.3092 15.7257 59.9919 17.1715 59.4297Z" fill="#EA5D21" stroke="black"/>
<path d="M3.918 61.8387C-0.711639 68.5835 1.18707 72.3608 2.71318 73.4049C1.74932 71.477 4.39991 66.3366 5.84569 64.0073C7.13084 60.4732 4.57893 60.8758 3.918 61.8387Z" fill="#EA5D21" stroke="black"/>
<path d="M16.2073 59.9121C16.1176 59.9218 16.0248 59.9318 15.9292 59.9422C14.7998 60.2028 15.0865 62.064 16.2073 61.8398C17.1712 61.6471 18.6973 63.2053 19.3398 64.0085C16.127 63.9282 9.02657 63.8157 6.32778 64.0085C2.95428 64.2495 3.43621 61.3579 5.36392 61.1169C6.85954 60.93 12.8577 60.2746 15.9292 59.9422C16.0139 59.9227 16.1065 59.9121 16.2073 59.9121Z" fill="#EA5D21"/>
<path d="M16.2073 59.9121C13.2354 60.2334 6.90609 60.9242 5.36392 61.1169C3.43621 61.3579 2.95428 64.2495 6.32778 64.0085C9.02657 63.8157 16.127 63.9282 19.3398 64.0085C18.6973 63.2053 17.1712 61.6471 16.2073 61.8398C15.0025 62.0808 14.7615 59.9121 16.2073 59.9121Z" stroke="black"/>
<path d="M104.096 78.7186C94.2648 79.1041 88.577 78.0652 86.569 77.5029L82.7136 80.1531C86.569 81.5988 93.4938 84.7427 96.3853 84.7427C99.9998 84.7427 102.168 82.815 103.373 82.574C104.578 82.333 104.819 82.815 105.542 84.7427C106.699 86.2848 109.237 86.6704 110.361 86.6704C112.369 83.8591 113.927 78.333 104.096 78.7186Z" fill="#EA5D21" stroke="black"/>
<path d="M105.542 95.5736C108.434 98.947 114.554 104.007 115.903 97.2603C117.253 90.5133 112.771 87.3808 110.361 86.6579C107.952 86.4185 106.265 85.2927 106.506 85.694C108.37 88.7991 106.506 93.6458 105.542 95.5736Z" fill="#EA5D21" stroke="black"/>
<path d="M109.156 105.936C113.091 104.588 116.626 99.8382 114.216 100.394C111.807 100.95 109.638 99.4302 109.638 99.4302C109.638 99.4302 105.301 94.8517 104.578 95.8158C102.579 98.4791 98.3125 101.599 98.3125 101.599C98.3125 101.599 100.602 105.028 102.891 105.936C105.165 106.839 106.841 106.729 109.156 105.936Z" fill="#EA5D21"/>
<path d="M85.0599 40.6348C84.2888 42.3697 83.2928 42.8035 82.8912 42.8035C82.7305 42.8035 82.3761 43.1404 81.0267 42.5621C79.6773 41.9839 81.606 40.3939 82.8912 39.9119C83.9354 39.43 85.8309 38.8999 85.0599 40.6348Z" fill="#EA5D21"/>
<path d="M109.156 105.936C113.091 104.588 116.626 99.8382 114.216 100.394C111.807 100.95 109.638 99.4302 109.638 99.4302C109.638 99.4302 105.301 94.8517 104.578 95.8158C102.579 98.4791 98.3125 101.599 98.3125 101.599C98.3125 101.599 100.602 105.028 102.891 105.936C105.165 106.839 106.841 106.729 109.156 105.936Z" stroke="black"/>
<path d="M85.0599 40.6348C84.2888 42.3697 83.2928 42.8035 82.8912 42.8035C82.7305 42.8035 82.3761 43.1404 81.0267 42.5621C79.6773 41.9839 81.606 40.3939 82.8912 39.9119C83.9354 39.43 85.8309 38.8999 85.0599 40.6348Z" stroke="black"/>
<path d="M84.1082 41.5996L81.7495 40.7428C84.537 39.0293 84.3226 39.8861 84.9659 39.8861C85.4805 39.8861 84.6085 41.0284 84.1082 41.5996Z" fill="#EA5D21" stroke="black"/>
<path d="M115.421 69.792L92.593 73.165L88.2557 76.2975C88.5769 76.6188 89.0599 77.5028 92.5298 77.5028C95.9997 77.5028 108.273 75.8964 113.976 75.0932C114.779 75.2538 116.192 75.3342 115.421 74.3703C114.65 73.4065 116.064 71.2378 116.867 70.2739L115.421 69.792Z" fill="#EA5D21" stroke="black"/>
<path d="M134.939 83.2855C135.325 80.0084 123.052 73.2453 116.867 70.2734C116.144 70.2734 113.976 74.6108 116.144 74.6108C124.453 74.6108 131.566 84.4903 132.048 85.4542C132.433 86.2253 133.654 86.5787 134.217 86.659C134.297 86.9 134.554 86.5626 134.939 83.2855Z" fill="#EA5D21" stroke="black"/>
<path d="M131.325 95.0934C133.445 94.5151 134.618 86.9809 134.939 83.2861L134.217 86.6596L132.289 85.9367C131.084 89.2299 129.205 95.6717 131.325 95.0934Z" fill="#EA5D21" stroke="black"/>
<path d="M115.421 54.61C114.65 56.1522 106.265 57.1798 102.168 57.983L101.268 59.1879L103.677 60.6337L101.268 62.8023C105.685 61.1959 115.855 58.5618 117.59 58.9474C119.759 59.4293 116.385 52.6823 115.421 54.61Z" fill="#EA5D21" stroke="black"/>
<path d="M130.12 37.9841C130.506 39.3335 120.803 49.4701 115.904 54.3697C116.469 53.8038 117.851 55.9606 118.512 57.1823C117.429 57.7499 117.951 57.5355 118.554 57.2612C118.54 57.2354 118.526 57.209 118.512 57.1823C119.014 56.919 119.861 56.4874 121.205 55.8154C126.506 53.1648 131.084 41.3576 131.807 40.3937C132.53 39.4299 129.638 36.2974 130.12 37.9841Z" fill="#EA5D21"/>
<path d="M115.904 54.3697C120.803 49.4701 130.506 39.3335 130.12 37.9841C129.638 36.2974 132.53 39.4299 131.807 40.3937C131.084 41.3576 126.506 53.1648 121.205 55.8154C116.964 57.9359 117.671 57.6628 118.554 57.2612C117.912 56.0564 116.482 53.7914 115.904 54.3697Z" stroke="black"/>
<path d="M134.94 29.0684C137.634 29.0633 133.333 37.1808 132.048 39.9117C131.566 38.7073 130.728 38.254 130.602 37.5021C130.361 36.0574 134.699 29.0688 134.94 29.0684Z" fill="#EA5D21" stroke="black"/>
<path d="M112.771 61.8398L103.195 65.4538C101.991 66.4177 98.0548 69.3093 95.9664 70.755L112.771 67.1411C113.092 66.9804 113.542 66.4664 112.771 65.6953C112 64.9242 112.449 62.8037 112.771 61.8398Z" fill="#EA5D21" stroke="black"/>
<path d="M124.578 59.4307C124.176 59.4307 121.301 59.9608 113.012 62.0813C111.325 63.768 113.012 66.1777 113.494 66.6596C113.879 67.0451 119.116 65.3744 121.686 64.4909C121.847 64.009 122.843 62.8524 125.542 62.0813C128.24 61.3102 126.024 59.9929 124.578 59.4307Z" fill="#EA5D21" stroke="black"/>
<path d="M137.831 61.8396C142.461 68.5845 140.562 72.3617 139.036 73.4059C140 71.478 137.349 66.3376 135.904 64.0083C134.618 60.4742 137.17 60.8767 137.831 61.8396Z" fill="#EA5D21" stroke="black"/>
<path d="M125.542 59.9121C125.632 59.9218 125.724 59.9318 125.82 59.9422C126.949 60.2028 126.663 62.064 125.542 61.8398C124.578 61.6471 123.052 63.2053 122.409 64.0085C125.622 63.9282 132.723 63.8157 135.421 64.0085C138.795 64.2495 138.313 61.3579 136.385 61.1169C134.89 60.93 128.892 60.2746 125.82 59.9422C125.735 59.9227 125.643 59.9121 125.542 59.9121Z" fill="#EA5D21"/>
<path d="M125.542 59.9121C128.514 60.2334 134.843 60.9242 136.385 61.1169C138.313 61.3579 138.795 64.2495 135.421 64.0085C132.723 63.8157 125.622 63.9282 122.409 64.0085C123.052 63.2053 124.578 61.6471 125.542 61.8398C126.747 62.0808 126.988 59.9121 125.542 59.9121Z" stroke="black"/>
</svg>
