<svg width="158" height="158" viewBox="0 0 158 158" fill="none" xmlns="http://www.w3.org/2000/svg">
<path d="M83.438 42.9272L85.7364 62.7651C86.1068 65.9621 89.1311 68.1594 92.2861 67.5237L111.863 63.5794C117.103 62.5237 119.486 69.8563 114.626 72.082L96.4693 80.3981C93.5431 81.7384 92.388 85.2936 93.9675 88.0978L103.768 105.498C106.392 110.155 100.154 114.687 96.5357 110.753L83.0159 96.0547C80.837 93.6859 77.0988 93.6859 74.9199 96.0546L61.4001 110.753C57.7816 114.687 51.5441 110.155 54.1673 105.498L63.9683 88.0978C65.5478 85.2936 64.3926 81.7384 61.4665 80.3981L43.3098 72.082C38.4503 69.8563 40.8328 62.5237 46.0725 63.5794L65.6497 67.5237C68.8047 68.1594 71.829 65.9621 72.1994 62.7651L74.4978 42.9272C75.1129 37.6177 82.8228 37.6177 83.438 42.9272Z" fill="#FFCC33" stroke="black"/>
<circle cx="79.1071" cy="90.1906" r="1.5781" transform="rotate(-143.038 79.1071 90.1906)" fill="#8D2EFF" stroke="black"/>
<path d="M80.4644 53.0822L81.7945 71.8228C81.9044 73.3711 83.3839 74.4461 84.8905 74.0721L103.125 69.546C104.933 69.0971 105.776 71.6922 104.05 72.392L86.6372 79.4481C85.1986 80.0311 84.6335 81.7704 85.4547 83.0877L95.3941 99.0309C96.3797 100.612 94.1721 102.216 92.9731 100.79L80.8816 86.4102C79.8826 85.2221 78.0537 85.2221 77.0547 86.4102L64.9632 100.79C63.7642 102.216 61.5566 100.612 62.5423 99.0309L72.4817 83.0877C73.3029 81.7704 72.7377 80.0311 71.2991 79.4481L53.8868 72.392C52.1601 71.6922 53.0033 69.0971 54.8115 69.546L73.0459 74.0721C74.5524 74.4461 76.032 73.3711 76.1419 71.8228L77.4719 53.0822C77.6038 51.2238 80.3325 51.2238 80.4644 53.0822Z" fill="#FBF8A4" stroke="black"/>
<circle cx="78.9679" cy="78.9684" r="2.9635" fill="#A8EEE4" stroke="black"/>
<circle cx="78.9678" cy="72.041" r="1.5781" fill="#D9D9D9" stroke="black"/>
<circle cx="78.9679" cy="56.109" r="0.885402" fill="#D9D9D9" stroke="black"/>
<circle cx="78.9679" cy="59.5719" r="0.885402" fill="#D9D9D9" stroke="black"/>
<circle cx="78.9679" cy="63.7292" r="0.885402" fill="#D9D9D9" stroke="black"/>
<circle cx="78.9679" cy="67.192" r="0.885402" fill="#D9D9D9" stroke="black"/>
<circle cx="78.9678" cy="72.041" r="1.5781" fill="#D9D9D9" stroke="black"/>
<circle cx="78.9679" cy="56.109" r="0.885402" fill="#D9D9D9" stroke="black"/>
<circle cx="78.9679" cy="59.5719" r="0.885402" fill="#D9D9D9" stroke="black"/>
<circle cx="78.9679" cy="63.7292" r="0.885402" fill="#D9D9D9" stroke="black"/>
<circle cx="78.9679" cy="67.192" r="0.885402" fill="#D9D9D9" stroke="black"/>
<circle cx="72.9198" cy="77.0018" r="1.5781" transform="rotate(-73.3959 72.9198 77.0018)" fill="#D9D9D9" stroke="black"/>
<circle cx="57.6527" cy="72.4491" r="0.885402" transform="rotate(-73.3959 57.6527 72.4491)" fill="#D9D9D9" stroke="black"/>
<circle cx="60.9716" cy="73.4393" r="0.885402" transform="rotate(-73.3959 60.9716 73.4393)" fill="#D9D9D9" stroke="black"/>
<circle cx="64.9535" cy="74.6259" r="0.885402" transform="rotate(-73.3959 64.9535 74.6259)" fill="#D9D9D9" stroke="black"/>
<circle cx="68.2733" cy="75.6161" r="0.885402" transform="rotate(-73.3959 68.2733 75.6161)" fill="#D9D9D9" stroke="black"/>
<circle cx="86.1856" cy="76.9391" r="1.5781" transform="rotate(70.835 86.1856 76.9391)" fill="#D9D9D9" stroke="black"/>
<circle cx="101.235" cy="71.7087" r="0.885402" transform="rotate(70.835 101.235 71.7087)" fill="#D9D9D9" stroke="black"/>
<circle cx="97.9631" cy="72.8455" r="0.885402" transform="rotate(70.835 97.9631 72.8455)" fill="#D9D9D9" stroke="black"/>
<circle cx="94.0373" cy="74.2107" r="0.885402" transform="rotate(70.835 94.0373 74.2107)" fill="#D9D9D9" stroke="black"/>
<circle cx="90.7663" cy="75.3484" r="0.885402" transform="rotate(70.835 90.7663 75.3484)" fill="#D9D9D9" stroke="black"/>
<circle cx="86.1856" cy="76.9391" r="1.5781" transform="rotate(70.835 86.1856 76.9391)" fill="#D9D9D9" stroke="black"/>
<circle cx="101.235" cy="71.7087" r="0.885402" transform="rotate(70.835 101.235 71.7087)" fill="#D9D9D9" stroke="black"/>
<circle cx="97.9631" cy="72.8455" r="0.885402" transform="rotate(70.835 97.9631 72.8455)" fill="#D9D9D9" stroke="black"/>
<circle cx="94.0373" cy="74.2107" r="0.885402" transform="rotate(70.835 94.0373 74.2107)" fill="#D9D9D9" stroke="black"/>
<circle cx="90.7663" cy="75.3484" r="0.885402" transform="rotate(70.835 90.7663 75.3484)" fill="#D9D9D9" stroke="black"/>
<circle cx="83.1064" cy="84.2383" r="1.5781" transform="rotate(143.85 83.1064 84.2383)" fill="#D9D9D9" stroke="black"/>
<circle cx="92.504" cy="97.1029" r="0.885402" transform="rotate(143.85 92.504 97.1029)" fill="#D9D9D9" stroke="black"/>
<circle cx="90.461" cy="94.307" r="0.885402" transform="rotate(143.85 90.461 94.307)" fill="#D9D9D9" stroke="black"/>
<circle cx="88.0099" cy="90.9505" r="0.885402" transform="rotate(143.85 88.0099 90.9505)" fill="#D9D9D9" stroke="black"/>
<circle cx="85.9659" cy="88.1546" r="0.885402" transform="rotate(143.85 85.9659 88.1546)" fill="#D9D9D9" stroke="black"/>
<circle cx="74.8293" cy="85.1818" r="1.5781" transform="rotate(-143.038 74.8293 85.1818)" fill="#D9D9D9" stroke="black"/>
<circle cx="63.8679" cy="80.4923" r="1.5781" transform="rotate(-143.038 63.8679 80.4923)" fill="#8D2EFF" stroke="black"/>
<circle cx="65.2526" cy="87.4201" r="1.5781" transform="rotate(-143.038 65.2526 87.4201)" fill="#8D2EFF" stroke="black"/>
<circle cx="94.0928" cy="79.9179" r="1.5781" transform="rotate(-113.038 94.0928 79.9179)" fill="#8D2EFF" stroke="black"/>
<circle cx="91.8296" cy="86.6084" r="1.5781" transform="rotate(-113.038 91.8296 86.6084)" fill="#8D2EFF" stroke="black"/>
<circle cx="90.6573" cy="69.3033" r="1.5781" transform="rotate(-8.03763 90.6573 69.3033)" fill="#8D2EFF" stroke="black"/>
<circle cx="84.7799" cy="65.3843" r="1.5781" transform="rotate(-8.03763 84.7799 65.3843)" fill="#8D2EFF" stroke="black"/>
<circle cx="66.861" cy="68.7411" r="1.5781" transform="rotate(101.982 66.861 68.7411)" fill="#8D2EFF" stroke="black"/>
<circle cx="72.5553" cy="64.5604" r="1.5781" transform="rotate(101.982 72.5553 64.5604)" fill="#8D2EFF" stroke="black"/>
<circle cx="65.2495" cy="97.9125" r="0.885402" transform="rotate(-143.038 65.2495 97.9125)" fill="#D9D9D9" stroke="black"/>
<circle cx="67.3315" cy="95.145" r="0.885402" transform="rotate(-143.038 67.3315 95.145)" fill="#D9D9D9" stroke="black"/>
<circle cx="69.831" cy="91.8237" r="0.885402" transform="rotate(-143.038 69.831 91.8237)" fill="#D9D9D9" stroke="black"/>
<circle cx="71.9136" cy="89.0561" r="0.885402" transform="rotate(-143.038 71.9136 89.0561)" fill="#D9D9D9" stroke="black"/>
</svg>
